<svg width="150" height="151" viewBox="0 0 150 151" fill="none" xmlns="http://www.w3.org/2000/svg">
<path d="M32.5 42.8C36.5 42.8 39.85 44.15 42.55 46.85C45.25 49.55 46.6 52.85 46.6 56.75C46.6 59.45 45.85 62.1 44.35 64.7C42.95 67.3 40.95 69.45 38.35 71.15C35.85 72.75 33 73.55 29.8 73.55C25.8 73.55 22.45 72.2 19.75 69.5C17.15 66.8 15.85 63.45 15.85 59.45C15.85 56.75 16.55 54.15 17.95 51.65C19.35 49.05 21.3 46.95 23.8 45.35C26.4 43.65 29.3 42.8 32.5 42.8ZM17.05 91.7C21.05 91.7 24.4 93.05 27.1 95.75C29.9 98.45 31.3 101.75 31.3 105.65C31.3 108.35 30.55 111 29.05 113.6C27.65 116.2 25.65 118.35 23.05 120.05C20.55 121.65 17.7 122.45 14.5 122.45C10.6 122.45 7.3 121.1 4.6 118.4C1.9 115.7 0.5 112.4 0.4 108.5C0.4 105.8 1.1 103.15 2.5 100.55C3.9 97.95 5.85 95.85 8.35 94.25C10.95 92.55 13.85 91.7 17.05 91.7ZM58.6809 84.35C58.6809 79.35 59.1809 74.35 60.1809 69.35C63.0809 55.05 69.2809 42.75 78.7809 32.45C88.3809 22.05 98.9309 14.2 110.431 8.9C122.031 3.6 131.981 0.949994 140.281 0.949994C143.081 0.949994 145.281 1.39999 146.881 2.29999C148.481 3.1 149.281 4.3 149.281 5.89999C149.281 6.5 149.231 6.95 149.131 7.24999C148.831 8.45 147.981 9.6 146.581 10.7C145.181 11.7 143.081 13.05 140.281 14.75C134.481 18.35 129.231 22.2 124.531 26.3C119.931 30.3 115.281 36.15 110.581 43.85C105.881 51.45 102.131 61 99.3309 72.5C97.1309 81.6 96.0309 90.25 96.0309 98.45C96.0309 107.35 97.1309 114.85 99.3309 120.95C101.531 127.05 104.381 132.95 107.881 138.65C109.281 141.05 110.281 142.85 110.881 144.05C111.481 145.25 111.781 146.3 111.781 147.2C111.781 147.7 111.731 148.1 111.631 148.4C111.031 150.1 109.381 150.95 106.681 150.95C101.581 150.95 95.1309 148.05 87.3309 142.25C79.6309 136.45 72.9309 128.5 67.2309 118.4C61.5309 108.2 58.6809 96.85 58.6809 84.35Z" fill="#C5C5C5"/>
</svg>
