<?xml version="1.0" encoding="UTF-8"?>
<!--Generator: Apple Native CoreSVG 232.5-->
<!DOCTYPE svg
PUBLIC "-//W3C//DTD SVG 1.1//EN"
       "http://www.w3.org/Graphics/SVG/1.1/DTD/svg11.dtd">
<svg version="1.1" xmlns="http://www.w3.org/2000/svg" xmlns:xlink="http://www.w3.org/1999/xlink" width="26.123" height="45.6787">
 <g>
  <rect height="45.6787" opacity="0" width="26.123" x="0" y="0"/>
  <path d="M1.83105 45.5322C2.88086 45.5322 3.68652 44.6777 3.68652 43.6523L3.68652 1.85547C3.68652 0.830078 2.88086 0 1.83105 0C0.805664 0 0 0.830078 0 1.85547L0 43.6523C0 44.6777 0.805664 45.5322 1.83105 45.5322Z" fill="#ffffff"/>
  <path d="M21.9727 30.249C23.7549 31.4453 25.7812 30.7617 25.7812 28.5889L25.7812 17.0166C25.7812 14.7705 23.8525 14.0625 21.9727 15.332L13.8916 20.8252C12.5 21.7773 12.4268 23.877 13.8916 24.8535Z" fill="#ff5300"/>
 </g>
</svg>
