<svg width="100" height="100" viewBox="0 0 100 100" fill="none" xmlns="http://www.w3.org/2000/svg">
<rect width="100" height="100" rx="15" fill="#1C1C1E"/>
<path d="M25.0588 77.7329L23.1301 78.2619L23.3612 79.1048L24.1369 79.5077L25.0588 77.7329ZM50 86L49.6181 87.9632L50 88.0375L50.3819 87.9632L50 86ZM27.7255 75.8611L25.8175 76.4607L26.0942 77.3413L26.9439 77.7021L27.7255 75.8611ZM50 83.0363L49.7031 85.0142L50 85.0587L50.2969 85.0142L50 83.0363ZM16.5882 47.9402L14.664 48.4856L14.666 48.4925L16.5882 47.9402ZM10 24.6987L10.5919 22.7883L7.07035 21.6972L8.07582 25.2442L10 24.6987ZM31.6471 31.406L31.0551 33.3164L32.2154 33.6759L33.0694 32.8121L31.6471 31.406ZM49.8431 13L51.2534 11.5818L49.831 10.1675L48.4208 11.5939L49.8431 13ZM19.5686 47.6282L21.4928 47.0828L21.4909 47.0759L19.5686 47.6282ZM14.2353 29.0662L14.8205 27.1538L11.2949 26.0751L12.3131 29.6185L14.2353 29.0662ZM32.5882 34.6816L32.0031 36.5941L33.1606 36.9483L34.0112 36.087L32.5882 34.6816ZM49.8431 17.2115L51.2534 15.7934L49.8304 14.3783L48.4202 15.8061L49.8431 17.2115ZM74.9412 77.7329L75.8631 79.5077L76.6388 79.1048L76.87 78.2619L74.9412 77.7329ZM72.2745 75.8611L73.0561 77.7021L73.9058 77.3413L74.1825 76.4607L72.2745 75.8611ZM83.4118 47.9402L85.334 48.4925L85.336 48.4856L83.4118 47.9402ZM90 24.6987L91.9242 25.2442L92.9296 21.6972L89.4081 22.7883L90 24.6987ZM68.3529 31.406L66.9427 32.8242L67.7958 33.6724L68.9449 33.3164L68.3529 31.406ZM80.4314 47.6282L78.5091 47.0759L78.5072 47.0828L80.4314 47.6282ZM85.7647 29.0662L87.6869 29.6185L88.7051 26.0751L85.1796 27.1538L85.7647 29.0662ZM67.4118 34.6816L66.0015 36.0998L66.8512 36.9447L67.9969 36.5941L67.4118 34.6816ZM21.2477 71.3987L23.1301 78.2619L26.9876 77.2039L25.1052 70.3407L21.2477 71.3987ZM24.1369 79.5077C27.7903 81.4055 37.864 85.6764 49.6181 87.9632L50.3819 84.0368C39.0458 81.8313 29.3339 77.6999 25.9808 75.9581L24.1369 79.5077ZM23.1765 72.8697H26.1569V68.8697H23.1765V72.8697ZM24.2489 71.4693L25.8175 76.4607L29.6335 75.2615L28.0649 70.27L24.2489 71.4693ZM26.9439 77.7021C31.589 79.6743 42.7718 83.9738 49.7031 85.0142L50.2969 81.0585C43.9263 80.1023 33.1691 75.9995 28.5071 74.0202L26.9439 77.7021ZM18.5124 47.3947L11.9242 24.1533L8.07582 25.2442L14.6641 48.4856L18.5124 47.3947ZM9.40807 26.6091L31.0551 33.3164L32.239 29.4956L10.5919 22.7883L9.40807 26.6091ZM33.0694 32.8121L51.2654 14.4061L48.4208 11.5939L30.2248 29.9999L33.0694 32.8121ZM16.8985 50.0719L19.8788 49.604L19.2584 45.6524L16.278 46.1204L16.8985 50.0719ZM21.4909 47.0759L16.1575 28.5139L12.3131 29.6185L17.6464 48.1805L21.4909 47.0759ZM13.6501 30.9787L32.0031 36.5941L33.1734 32.7691L14.8205 27.1538L13.6501 30.9787ZM34.0112 36.087L51.2661 18.617L48.4202 15.8061L31.1653 33.2762L34.0112 36.087ZM74.8948 70.3407L73.0124 77.2039L76.87 78.2619L78.7523 71.3987L74.8948 70.3407ZM74.0192 75.9581C70.6661 77.6999 60.9542 81.8313 49.6181 84.0368L50.3819 87.9632C62.136 85.6764 72.2097 81.4055 75.8631 79.5077L74.0192 75.9581ZM76.8235 68.8697H73.8431V72.8697H76.8235V68.8697ZM71.9351 70.27L70.3665 75.2615L74.1825 76.4607L75.7511 71.4693L71.9351 70.27ZM71.4929 74.0202C66.8309 75.9995 56.0737 80.1023 49.7031 81.0585L50.2969 85.0142C57.2282 83.9738 68.411 79.6743 73.0561 77.7021L71.4929 74.0202ZM85.336 48.4856L91.9242 25.2442L88.0758 24.1533L81.4876 47.3947L85.336 48.4856ZM89.4081 22.7883L67.761 29.4956L68.9449 33.3164L90.5919 26.6091L89.4081 22.7883ZM69.7632 29.9878L51.2534 11.5818L48.4329 14.4182L66.9427 32.8242L69.7632 29.9878ZM83.722 46.1204L80.7416 45.6524L80.1212 49.604L83.1016 50.0719L83.722 46.1204ZM82.3536 48.1805L87.6869 29.6185L83.8425 28.5139L78.5091 47.0759L82.3536 48.1805ZM85.1796 27.1538L66.8266 32.7691L67.9969 36.5941L86.3499 30.9787L85.1796 27.1538ZM68.822 33.2634L51.2534 15.7934L48.4329 18.6297L66.0015 36.0998L68.822 33.2634ZM75.7673 71.4151L82.3556 48.1737L78.5072 47.0828L71.919 70.3242L75.7673 71.4151ZM78.7458 71.422L85.334 48.4925L81.4895 47.3879L74.9013 70.3174L78.7458 71.422ZM28.081 70.3242L21.4928 47.0828L17.6444 48.1737L24.2327 71.4151L28.081 70.3242ZM25.0987 70.3174L18.5105 47.3879L14.666 48.4925L21.2542 71.422L25.0987 70.3174Z" fill="url(#paint0_linear_136_113)"/>
<defs>
<linearGradient id="paint0_linear_136_113" x1="50" y1="13" x2="50" y2="86" gradientUnits="userSpaceOnUse">
<stop stop-color="#ABE5F8"/>
<stop offset="1" stop-color="#3B6A79"/>
</linearGradient>
</defs>
</svg>
