<svg width="100" height="100" viewBox="0 0 100 100" fill="none" xmlns="http://www.w3.org/2000/svg">
<rect width="100" height="100" rx="15" fill="white"/>
<path d="M23.1765 70.8697L25.0588 77.7329C28.5621 79.5527 38.4549 83.7538 50 86C61.5451 83.7538 71.4379 79.5527 74.9412 77.7329L76.8235 70.8697M23.1765 70.8697H26.1569M23.1765 70.8697L16.5882 47.9402L10 24.6987L31.6471 31.406L49.8431 13L68.3529 31.406L90 24.6987L83.4118 47.9402L76.8235 70.8697M26.1569 70.8697L27.7255 75.8611C32.3791 77.8369 43.349 82.038 50 83.0363C56.651 82.038 67.6209 77.8369 72.2745 75.8611L73.8431 70.8697M26.1569 70.8697L19.5686 47.6282M16.5882 48.0962L19.5686 47.6282M19.5686 47.6282L14.2353 29.0662L32.5882 34.6816L49.8431 17.2115M76.8235 70.8697H73.8431M73.8431 70.8697L80.4314 47.6282M83.4118 48.0962L80.4314 47.6282M80.4314 47.6282L85.7647 29.0662L67.4118 34.6816L49.8431 17.0556" stroke="url(#paint0_linear_125_219)" stroke-width="4"/>
<defs>
<linearGradient id="paint0_linear_125_219" x1="50" y1="13" x2="50" y2="86" gradientUnits="userSpaceOnUse">
<stop stop-color="#ABE5F8"/>
<stop offset="1" stop-color="#3B6A79"/>
</linearGradient>
</defs>
</svg>
