<svg width="100" height="100" viewBox="0 0 100 100" fill="none" xmlns="http://www.w3.org/2000/svg">
<rect width="100" height="100" fill="white"/>
<path fill-rule="evenodd" clip-rule="evenodd" d="M100 0H0V100H100V0ZM51.2534 11.5818L49.831 10.1675L48.4208 11.5939L31.0787 29.1361L10.5919 22.7883L7.07035 21.6972L8.07582 25.2442L14.6641 48.4856L14.666 48.4925L21.2509 71.4104L23.1301 78.2619L23.3612 79.1048L24.1369 79.5077C27.7903 81.4055 37.864 85.6764 49.6181 87.9632L50 88.0375L50.3819 87.9632C62.136 85.6764 72.2097 81.4055 75.8631 79.5077L76.6388 79.1048L76.87 78.2619L78.7491 71.4103L85.334 48.4925L85.336 48.4856L91.9242 25.2442L92.9296 21.6972L89.4081 22.7883L68.9101 29.1395L51.2534 11.5818ZM29.3551 74.3756L28.0734 70.2971L21.4928 47.0828L21.4909 47.0759L17.1757 32.0574L32.0031 36.5941L33.1606 36.9483L34.0112 36.087L49.8559 20.0447L66.0015 36.0998L66.8512 36.9447L67.9969 36.5941L82.8243 32.0574L78.5091 47.0759L78.5072 47.0828L71.9267 70.2971L70.6449 74.3756C65.7094 76.4199 56.0351 80.0361 50 81.0122C43.9649 80.0361 34.2906 76.4199 29.3551 74.3756Z" fill="#70D3F3"/>
</svg>
