<svg width="100" height="100" viewBox="0 0 100 100" fill="none" xmlns="http://www.w3.org/2000/svg">
<g clip-path="url(#clip0_320_163)">
<path d="M100 0H0V100H100V0Z" fill="#0CCB9D"/>
<path d="M9.5 48.375V20.25H15.125V14.625H20.75V9H37.625V14.625H43.25V20.25H48.875V48.375H37.625V37.125H20.75V48.375H9.5ZM20.75 31.5H37.625V20.25H32V14.625H26.375V20.25H20.75V31.5Z" fill="white"/>
<path d="M52.5 92.375V53H86.25V58.625H91.875V69.875H86.25V75.5H91.875V86.75H86.25V92.375H52.5ZM63.75 69.875H80.625V58.625H63.75V69.875ZM63.75 86.75H80.625V75.5H63.75V86.75Z" fill="white"/>
</g>
<rect x="1.5" y="1.5" width="97" height="97" rx="13.5" stroke="#707070" stroke-width="3"/>
<defs>
<clipPath id="clip0_320_163">
<rect width="100" height="100" rx="15" fill="white"/>
</clipPath>
</defs>
</svg>
