<svg width="100" height="100" viewBox="0 0 100 100" fill="none" xmlns="http://www.w3.org/2000/svg">
<rect width="100" height="100" rx="15" fill="#1C1C1E"/>
<path d="M38.0435 27.6328H36.0435V28.8761L37.1584 29.4263L38.0435 27.6328ZM38.0435 11V9H36.0435V11H38.0435ZM61.9565 11H63.9565V9H61.9565V11ZM61.9565 27.6328L62.9895 29.3454L63.9565 28.7621V27.6328H61.9565ZM25.5 55L24.0858 53.5858L23.5 54.1716V55H25.5ZM50 30.5L51.4274 29.0991L50.0134 27.6582L48.5858 29.0858L50 30.5ZM50 89L48.57 90.3982L49.9974 91.8581L51.4274 90.4009L50 89ZM25.5 63.9427H23.5V64.758L24.07 65.3409L25.5 63.9427ZM74.5 55.465H76.5V54.6475L75.9274 54.0641L74.5 55.465ZM74.5 64.035L75.9274 65.4359L76.5 64.8525V64.035H74.5ZM29.3478 55.7824L27.9236 54.3783L27.3478 54.9623V55.7824H29.3478ZM50 34.8333L51.4348 33.44L50.0107 31.9736L48.5757 33.4292L50 34.8333ZM50 84.6667L48.5652 86.06L50 87.5375L51.4348 86.06L50 84.6667ZM29.3478 63.4002H27.3478V64.2115L27.913 64.7936L29.3478 63.4002ZM70.6522 56.0998H72.6522V55.2885L72.087 54.7064L70.6522 56.0998ZM70.6522 63.4002L72.087 64.7936L72.6522 64.2115V63.4002H70.6522ZM40.0435 27.6328V11H36.0435V27.6328H40.0435ZM38.0435 13H61.9565V9H38.0435V13ZM59.9565 11V27.6328H63.9565V11H59.9565ZM60.9235 25.9203C57.7916 27.8094 48.7153 30.6693 38.9286 25.8394L37.1584 29.4263C48.4151 34.9818 58.9476 31.7835 62.9895 29.3454L60.9235 25.9203ZM42.5652 29.909V35.9348H46.5652V29.909H42.5652ZM53.4348 29.9839V36.0379H57.4348V29.9839H53.4348ZM26.9142 56.4142L51.4142 31.9142L48.5858 29.0858L24.0858 53.5858L26.9142 56.4142ZM51.43 87.6018L26.93 62.5445L24.07 65.3409L48.57 90.3982L51.43 87.6018ZM27.5 63.9427V55H23.5V63.9427H27.5ZM75.9274 54.0641L51.4274 29.0991L48.5726 31.9009L73.0726 56.8658L75.9274 54.0641ZM51.4274 90.4009L75.9274 65.4359L73.0726 62.6342L48.5726 87.5991L51.4274 90.4009ZM76.5 64.035V55.465H72.5V64.035H76.5ZM30.7721 57.1865L51.4243 36.2374L48.5757 33.4292L27.9236 54.3783L30.7721 57.1865ZM51.4348 83.2733L30.7826 62.0069L27.913 64.7936L48.5652 86.06L51.4348 83.2733ZM31.3478 63.4002V55.7824H27.3478V63.4002H31.3478ZM72.087 54.7064L51.4348 33.44L48.5652 36.2267L69.2174 57.4931L72.087 54.7064ZM51.4348 86.06L72.087 64.7936L69.2174 62.0069L48.5652 83.2733L51.4348 86.06ZM72.6522 63.4002V56.0998H68.6522V63.4002H72.6522Z" fill="url(#paint0_linear_136_116)"/>
<defs>
<linearGradient id="paint0_linear_136_116" x1="50" y1="11" x2="50" y2="89" gradientUnits="userSpaceOnUse">
<stop stop-color="#A2FF76"/>
<stop offset="1" stop-color="#619947"/>
</linearGradient>
</defs>
</svg>
