<svg width="100" height="100" viewBox="0 0 100 100" fill="none" xmlns="http://www.w3.org/2000/svg">
<rect width="100" height="100" rx="15" fill="white"/>
<path d="M38.0435 27.6328H36.0435V28.8761L37.1583 29.4263L38.0435 27.6328ZM38.0435 11V9H36.0435V11H38.0435ZM61.9565 11H63.9565V9H61.9565V11ZM61.9565 27.6328L62.9895 29.3454L63.9565 28.7621V27.6328H61.9565ZM25.4087 54.5995L24.0088 53.171L23.4087 53.7592V54.5995H25.4087ZM50 30.5L51.4142 29.0858L50.0142 27.6858L48.6001 29.0716L50 30.5ZM50 89L48.564 90.3921L49.9939 91.867L51.43 90.3982L50 89ZM25.4087 63.6345H23.4087V64.4448L23.9727 65.0266L25.4087 63.6345ZM74.5 55H76.5V54.1716L75.9142 53.5858L74.5 55ZM74.5 63.9427L75.93 65.3409L76.5 64.758V63.9427H74.5ZM29.3478 55.7824L27.9235 54.3783L27.3478 54.9623V55.7824H29.3478ZM50 34.8333L51.4243 33.4292L50 31.9845L48.5757 33.4292L50 34.8333ZM50 84.6667L48.5652 86.06L50 87.5375L51.4348 86.06L50 84.6667ZM29.3478 63.4002H27.3478V64.2115L27.913 64.7936L29.3478 63.4002ZM70.6522 55.7824H72.6522V54.9623L72.0764 54.3783L70.6522 55.7824ZM70.6522 63.4002L72.0869 64.7936L72.6522 64.2115V63.4002H70.6522ZM40.0435 27.6328V11H36.0435V27.6328H40.0435ZM38.0435 13H61.9565V9H38.0435V13ZM59.9565 11V27.6328H63.9565V11H59.9565ZM60.9235 25.9203C57.7916 27.8094 48.7153 30.6693 38.9286 25.8394L37.1583 29.4263C48.4151 34.9818 58.9476 31.7835 62.9895 29.3454L60.9235 25.9203ZM42.5652 28.3333V37H46.5652V28.3333H42.5652ZM53.4348 28.3333V37H57.4348V28.3333H53.4348ZM26.8085 56.0279L51.3998 31.9284L48.6001 29.0716L24.0088 53.171L26.8085 56.0279ZM51.4359 87.6079L26.8446 62.2424L23.9727 65.0266L48.564 90.3921L51.4359 87.6079ZM27.4087 63.6345V54.5995H23.4087V63.6345H27.4087ZM75.9142 53.5858L51.4142 29.0858L48.5858 31.9142L73.0858 56.4142L75.9142 53.5858ZM51.43 90.3982L75.93 65.3409L73.07 62.5445L48.57 87.6018L51.43 90.3982ZM76.5 63.9427V55H72.5V63.9427H76.5ZM30.7721 57.1865L51.4243 36.2374L48.5757 33.4292L27.9235 54.3783L30.7721 57.1865ZM51.4348 83.2733L30.7826 62.0069L27.913 64.7936L48.5652 86.06L51.4348 83.2733ZM31.3478 63.4002V55.7824H27.3478V63.4002H31.3478ZM72.0764 54.3783L51.4243 33.4292L48.5757 36.2374L69.2279 57.1865L72.0764 54.3783ZM51.4348 86.06L72.0869 64.7936L69.2174 62.0069L48.5652 83.2733L51.4348 86.06ZM72.6522 63.4002V55.7824H68.6522V63.4002H72.6522Z" fill="url(#paint0_linear_125_218)"/>
<defs>
<linearGradient id="paint0_linear_125_218" x1="50" y1="11" x2="50" y2="89" gradientUnits="userSpaceOnUse">
<stop stop-color="#A2FF76"/>
<stop offset="1" stop-color="#619947"/>
</linearGradient>
</defs>
</svg>
