<svg width="100" height="100" viewBox="0 0 100 100" fill="none" xmlns="http://www.w3.org/2000/svg">
<rect width="100" height="100" fill="white"/>
<path fill-rule="evenodd" clip-rule="evenodd" d="M100 0H0V100H100V0ZM38.0435 9H36.0435V11V27.6328V28.8761L37.1583 29.4263C38.988 30.3293 40.7986 31.001 42.5652 31.4823V34.9858L24.0088 53.171L23.4087 53.7592V54.5995V63.6345V64.4448L23.9727 65.0266L48.564 90.3921L49.9939 91.867L51.43 90.3982L75.93 65.3409L76.5 64.758V63.9427V55V54.1716L75.9142 53.5858L57.4348 35.1064V31.574C59.808 30.9529 61.7193 30.1116 62.9895 29.3454L63.9565 28.7621V27.6328V11V9H61.9565H38.0435ZM50.0142 27.6858L50.8196 28.4912C54.7378 28.3924 57.9745 27.392 59.9565 26.4384V13H40.0435V26.3583C43.2595 27.766 46.3761 28.3688 49.2039 28.4799L50.0142 27.6858ZM31.3478 62.5889V56.6025L50 37.6822L68.6522 56.6025V62.5889L50 81.7959L31.3478 62.5889Z" fill="#3ECA5D"/>
</svg>
