<svg width="100" height="100" viewBox="0 0 100 100" fill="none" xmlns="http://www.w3.org/2000/svg">
<rect width="100" height="100" rx="15" fill="white"/>
<path d="M64.3903 83.902L62.7621 85L57.0632 83.3529L57.6059 81.9804C54.9219 80.9836 36.6196 76.5817 26.6691 74.5686L25.5836 75.9412L19.6134 75.1176L20.1561 73.7451L17.7138 73.4706L21.2416 62.7647L20.6989 55.6275L17.7138 42.451M64.3903 83.902L68.1896 85L74.4312 77.0392H75.5167L77.9591 73.7451V71.8235L81.487 67.4314C80.7633 62.3987 79.8587 50.7412 82.0297 44.3725L83.3866 43.8235L83.9294 39.9804L85.5576 39.7059L86.3717 37.5098C86.7336 35.0392 87.4572 30.0431 87.4572 29.8235C87.4572 29.6039 87.8191 28.817 88 28.451V22.9608C88 22.4118 87.6201 21.3137 86.1004 21.3137M64.3903 83.902L67.1041 70.451L68.1896 50.1072M86.1004 21.3137C84.2007 21.3137 78.7732 30.098 76.6022 36.6863C74.8654 41.9569 73.8885 48.5817 73.6171 51.2353L68.1896 50.1072M86.1004 21.3137L80.9442 21.0392L79.8587 19.1176L73.0743 18.8431L69.8178 20.4902L42.1375 18.2941L39.4238 15.8235L33.7249 15L30.197 16.3725H28.5688C20.319 16.3725 16.0855 26.0719 15 30.9216V42.451H17.7138M53.8067 47.1176L55.9777 36.9608L53.5353 34.4902L52.1784 31.7451L37.2528 29.8235L33.7249 32.0196L31.5539 33.6667L32.9108 44.3725M53.8067 47.1176V61.9412L50.5502 63.8627L34.539 60.8431L31.5539 57.2745L32.9108 44.3725M53.8067 47.1176L68.1896 50.1072M32.9108 44.3725L28.026 43.549L26.1264 44.098L19.8848 43.549L19.6134 42.451H17.7138M22.5985 43.8235V29.8235L28.5688 18.5686L36.1673 15.549M62.7621 48.7647L65.4758 35.0392L71.9888 21.8627L76.6022 19.1176" stroke="url(#paint0_linear_150_214)" stroke-width="4"/>
<defs>
<linearGradient id="paint0_linear_150_214" x1="51.5" y1="15" x2="51.5" y2="85" gradientUnits="userSpaceOnUse">
<stop offset="0.15" stop-color="#EE05BB"/>
<stop offset="1" stop-color="#330028"/>
</linearGradient>
</defs>
</svg>
