<svg width="104" height="100" viewBox="0 0 104 100" fill="none" xmlns="http://www.w3.org/2000/svg">
<rect width="100" height="100" rx="15" fill="white"/>
<path d="M17.9668 70.7237L16.7216 70.2194C16.5072 70.1326 16.394 69.897 16.4602 69.6754L19.2295 60.3995C19.2718 60.2576 19.3815 60.1458 19.5225 60.1007L21.0057 59.6257M17.9668 70.7237L18.1672 71.3494C18.2129 71.4922 18.327 71.6027 18.4712 71.6438L22.9053 72.9096M17.9668 70.7237L20.8703 65.0848M22.9053 72.9096L24.4002 72.4308M22.9053 72.9096L25.5351 66.4164M24.4002 72.4308L51.2449 81.2582M24.4002 72.4308L26.5262 66.57M51.2449 81.2582L50.8175 82.9415C50.7637 83.1535 50.8707 83.3734 51.0707 83.462L55.6627 85.4945M51.2449 81.2582L51.5927 79.2632M55.6627 85.4945L57.9435 84.5286M55.6627 85.4945L56.3127 80.9068M57.9435 84.5286L61.8993 85.8519M57.9435 84.5286L58.5661 79.8555M61.8993 85.8519L80.1559 72.0573C80.2421 71.9922 80.3018 71.8982 80.3243 71.7926L80.665 70.1878M61.8993 85.8519L62.1632 81.5291M80.665 70.1878L78.8434 64.5001C78.8268 64.4482 78.8198 64.3938 78.8227 64.3394L79.4398 52.7529C79.4497 52.5669 79.5735 52.4064 79.7509 52.3496L80.8569 51.9954C81.0407 51.9365 81.1663 51.7666 81.1686 51.5736L81.1982 49.0605M80.665 70.1878L64.9188 79.84M81.1982 49.0605L83.3074 44.6175L83.8154 43.6307M81.1982 49.0605L68.298 48.4827M77.7855 31.787C81.0824 28.8474 83.9104 29.59 85.0982 31.0933C86.0379 32.2825 86.1196 34.4832 86.0417 35.4684C86.04 35.4909 86.0364 35.5124 86.0311 35.5343L84.3361 42.5913C84.3278 42.6262 84.3152 42.6599 84.2988 42.6919L83.8154 43.6307M77.7855 31.787C74.4885 34.7266 69.296 42.0409 68.298 48.4827M77.7855 31.787C78.9356 30.4768 81.9297 27.9639 84.7047 28.3938C87.4796 28.8238 88.6637 31.4428 88.9089 32.6986M68.298 48.4827L67.6064 50.7121C67.5385 50.9311 67.3164 51.0636 67.0915 51.0193L63.4662 50.3062M83.8154 43.6307C84.0856 44.1168 85.0115 44.7716 86.5903 43.6238C86.6775 43.5605 86.7361 43.4651 86.7574 43.3595L88.9089 32.6986M88.9089 32.6986C89.7108 29.5405 88.6352 27.3328 87.9286 26.5322C87.877 26.4737 87.8086 26.434 87.7336 26.4126L85.5539 25.7904C85.5285 25.7831 85.5024 25.7781 85.4761 25.7755L79.1879 25.1374M60.1993 49.6636C60.391 43.419 63.8062 29.7422 75.9212 24.8575C75.988 24.8306 76.0614 24.8201 76.133 24.8274L79.1879 25.1374M60.1993 49.6636L59.2602 59.5246C59.241 59.7253 59.3583 59.9142 59.5466 59.9861L60.263 60.2597C60.4454 60.3293 60.5618 60.5089 60.5508 60.7038L59.8659 72.8854M60.1993 49.6636L63.4662 50.3062M60.1993 49.6636L57.6366 50.4843M60.1993 49.6636L52.3394 48.6488M58.5661 79.8555L62.1632 81.5291M58.5661 79.8555L59.3035 73.269C59.3331 73.0041 59.586 72.8233 59.8462 72.881L59.8659 72.8854M58.5661 79.8555L56.746 77.8483M62.1632 81.5291C62.1085 81.3583 62.2986 76.07 62.4005 73.4472M62.1632 81.5291L64.9188 79.84M62.4005 73.4472L59.8659 72.8854M62.4005 73.4472L63.0412 73.242M64.9188 79.84L64.3703 73.3924C64.3459 73.1054 64.061 72.9154 63.7866 73.0033L63.0412 73.242M63.0412 73.242C63.3734 69.1327 63.9951 60.9277 63.8243 60.9824C63.6882 61.026 63.156 60.7978 62.7552 60.6053C62.5896 60.5258 62.4945 60.3502 62.5122 60.1674L63.4662 50.3062M52.1579 76.0211L56.746 77.8483M52.1579 76.0211L51.5927 79.2632M52.1579 76.0211L51.9935 70.1872M56.746 77.8483L56.3127 80.9068M56.746 77.8483L57.6366 50.4843M56.3127 80.9068C56.12 80.8932 53.0857 79.8054 51.5927 79.2632M51.4084 49.4179L57.6366 50.4843M51.4084 49.4179L52.3394 48.6488M51.4084 49.4179L51.9935 70.1872M52.3394 48.6488C52.4347 42.2834 55.4005 30.0926 65.7704 25.1503M52.3394 48.6488L47.6943 47.4305M79.1879 25.1374C77.3718 23.5841 73.6391 23.2516 71.9998 23.2795C69.6744 23.6275 67.6064 24.2753 65.7704 25.1503M51.9935 70.1872L27.1781 61.2531M26.3796 60.9657L25.5351 66.4164M26.3796 60.9657L27.1781 61.2531M26.3796 60.9657L21.2109 60.2664M26.3796 60.9657C25.5812 56.512 24.0799 46.7265 24.4618 43.2134M25.5351 66.4164L26.5262 66.57M25.5351 66.4164L20.8703 65.0848M26.5262 66.57L27.1781 61.2531M20.8703 65.0848L21.2109 60.2664M21.2109 60.2664L21.0057 59.6257M21.0057 59.6257C19.6834 55.4968 17.235 46.2343 18.02 42.2154M18.02 42.2154L24.4618 43.2134M18.02 42.2154L14.255 41.7235C14.0222 41.6931 13.8521 41.4904 13.866 41.256C14.0261 38.5484 14.4095 33.6476 14.877 32.1081C14.9185 31.9713 15.0325 31.8753 15.1711 31.8403L18.2182 31.0703M18.02 42.2154L18.436 31.0152M24.4618 43.2134C24.4763 37.1318 26.5564 24.7556 34.7603 23.9035C42.9315 23.0548 44.6904 22.7426 44.5507 22.6915M24.4618 43.2134L30.1945 44.203M18.2182 31.0703L18.436 31.0152M18.2182 31.0703L15.327 30.3682C15.0894 30.3105 14.9406 30.0743 15.0076 29.8391C15.7458 27.2505 18.4171 22.4811 24.2259 21.155C26.3826 20.6627 28.5083 20.4217 30.5677 20.3703M18.436 31.0152C19.3115 28.1122 22.9636 21.919 30.5677 20.3703M65.7704 25.1503C60.4678 24.9367 48.838 24.1468 44.5507 22.6915M44.5507 22.6915L44.549 22.6909C44.5294 22.6843 44.51 22.6776 44.4907 22.671C40.6811 21.3509 35.8419 20.2387 30.5677 20.3703M30.1945 44.203L29.4273 33.2241C29.4143 33.0394 29.5162 32.8658 29.6838 32.787L33.9996 30.757C34.0735 30.7223 34.1555 30.7084 34.2368 30.7168L47.7844 32.1225C47.9181 32.1364 48.0385 32.2095 48.1125 32.3217L51.0793 36.821C51.1557 36.9369 51.1741 37.0816 51.1292 37.213L47.7117 47.2083C47.6873 47.2797 47.6813 47.3562 47.6943 47.4305M30.1945 44.203L28.9921 57.1338C28.9817 57.2461 29.0139 57.3583 29.0824 57.4479L30.901 59.8254C30.9657 59.91 31.0584 59.9688 31.1625 59.9913L45.7299 63.1397C45.8552 63.1667 45.9861 63.1389 46.0895 63.0632L49.708 60.4155C49.8458 60.3148 49.9144 60.1446 49.885 59.9765L47.6943 47.4305" stroke="url(#paint0_linear_142_274)" stroke-width="3" stroke-linecap="round" stroke-linejoin="bevel"/>
<defs>
<linearGradient id="paint0_linear_142_274" x1="41.8803" y1="15.4515" x2="64.1916" y2="85.1178" gradientUnits="userSpaceOnUse">
<stop stop-color="#FF00B8"/>
<stop offset="1" stop-color="#99006E"/>
</linearGradient>
</defs>
</svg>
