<svg width="104" height="103" viewBox="0 0 104 103" fill="none" xmlns="http://www.w3.org/2000/svg">
<rect y="3" width="100" height="100" rx="15" fill="#1C1C1E"/>
<path d="M17.9668 67.7237L16.7216 67.2194C16.5072 67.1326 16.394 66.897 16.4602 66.6754L19.2295 57.3995C19.2718 57.2576 19.3815 57.1458 19.5225 57.1007L21.0057 56.6257M17.9668 67.7237L18.1672 68.3494C18.2129 68.4922 18.327 68.6027 18.4712 68.6438L22.9053 69.9096M17.9668 67.7237L20.8703 62.0848M22.9053 69.9096L24.4002 69.4308M22.9053 69.9096L25.5351 63.4164M24.4002 69.4308L51.2449 78.2582M24.4002 69.4308L26.5262 63.57M51.2449 78.2582L50.8175 79.9415C50.7637 80.1535 50.8707 80.3734 51.0707 80.462L55.6627 82.4945M51.2449 78.2582L51.5927 76.2632M55.6627 82.4945L57.9435 81.5286M55.6627 82.4945L56.3127 77.9068M57.9435 81.5286L61.8993 82.8519M57.9435 81.5286L58.5661 76.8555M61.8993 82.8519L80.1559 69.0573C80.2421 68.9922 80.3018 68.8982 80.3243 68.7926L80.665 67.1878M61.8993 82.8519L62.1632 78.5291M80.665 67.1878L78.8434 61.5001C78.8268 61.4482 78.8198 61.3938 78.8227 61.3394L79.4398 49.7529C79.4497 49.5669 79.5735 49.4064 79.7509 49.3496L80.8569 48.9954C81.0407 48.9365 81.1663 48.7666 81.1686 48.5736L81.1982 46.0605M80.665 67.1878L64.9188 76.84M81.1982 46.0605L83.3074 41.6175L83.8154 40.6307M81.1982 46.0605L68.298 45.4827M77.7855 28.787C81.0824 25.8474 83.9104 26.59 85.0982 28.0933C86.0379 29.2825 86.1196 31.4832 86.0417 32.4684C86.04 32.4909 86.0364 32.5124 86.0311 32.5343L84.3361 39.5913C84.3278 39.6262 84.3152 39.6599 84.2988 39.6919L83.8154 40.6307M77.7855 28.787C74.4885 31.7266 69.296 39.0409 68.298 45.4827M77.7855 28.787C78.9356 27.4768 81.9297 24.9639 84.7047 25.3938C87.4796 25.8238 88.6637 28.4428 88.9089 29.6986M68.298 45.4827L67.6064 47.7121C67.5385 47.9311 67.3164 48.0636 67.0915 48.0193L63.4662 47.3062M83.8154 40.6307C84.0856 41.1168 85.0115 41.7716 86.5903 40.6238C86.6775 40.5605 86.7361 40.4651 86.7574 40.3595L88.9089 29.6986M88.9089 29.6986C89.7108 26.5405 88.6352 24.3328 87.9286 23.5322C87.877 23.4737 87.8086 23.434 87.7336 23.4126L85.5539 22.7904C85.5285 22.7831 85.5024 22.7781 85.4761 22.7755L79.1879 22.1374M60.1993 46.6636C60.391 40.419 63.8062 26.7422 75.9212 21.8575C75.988 21.8306 76.0614 21.8201 76.133 21.8274L79.1879 22.1374M60.1993 46.6636L59.2602 56.5246C59.241 56.7253 59.3583 56.9142 59.5466 56.9861L60.263 57.2597C60.4454 57.3293 60.5618 57.5089 60.5508 57.7038L59.8659 69.8854M60.1993 46.6636L63.4662 47.3062M60.1993 46.6636L57.6366 47.4843M60.1993 46.6636L52.3394 45.6488M58.5661 76.8555L62.1632 78.5291M58.5661 76.8555L59.3035 70.269C59.3331 70.0041 59.586 69.8233 59.8462 69.881L59.8659 69.8854M58.5661 76.8555L56.746 74.8483M62.1632 78.5291C62.1085 78.3583 62.2986 73.07 62.4005 70.4472M62.1632 78.5291L64.9188 76.84M62.4005 70.4472L59.8659 69.8854M62.4005 70.4472L63.0412 70.242M64.9188 76.84L64.3703 70.3924C64.3459 70.1054 64.061 69.9154 63.7866 70.0033L63.0412 70.242M63.0412 70.242C63.3734 66.1327 63.9951 57.9277 63.8243 57.9824C63.6882 58.026 63.156 57.7978 62.7552 57.6053C62.5896 57.5258 62.4945 57.3502 62.5122 57.1674L63.4662 47.3062M52.1579 73.0211L56.746 74.8483M52.1579 73.0211L51.5927 76.2632M52.1579 73.0211L51.9935 67.1872M56.746 74.8483L56.3127 77.9068M56.746 74.8483L57.6366 47.4843M56.3127 77.9068C56.12 77.8932 53.0857 76.8054 51.5927 76.2632M51.4084 46.4179L57.6366 47.4843M51.4084 46.4179L52.3394 45.6488M51.4084 46.4179L51.9935 67.1872M52.3394 45.6488C52.4347 39.2834 55.4005 27.0926 65.7704 22.1503M52.3394 45.6488L47.6943 44.4305M79.1879 22.1374C77.3718 20.5841 73.6391 20.2516 71.9998 20.2795C69.6744 20.6275 67.6064 21.2753 65.7704 22.1503M51.9935 67.1872L27.1781 58.2531M26.3796 57.9657L25.5351 63.4164M26.3796 57.9657L27.1781 58.2531M26.3796 57.9657L21.2109 57.2664M26.3796 57.9657C25.5812 53.512 24.0799 43.7265 24.4618 40.2134M25.5351 63.4164L26.5262 63.57M25.5351 63.4164L20.8703 62.0848M26.5262 63.57L27.1781 58.2531M20.8703 62.0848L21.2109 57.2664M21.2109 57.2664L21.0057 56.6257M21.0057 56.6257C19.6834 52.4968 17.235 43.2343 18.02 39.2154M18.02 39.2154L24.4618 40.2134M18.02 39.2154L14.255 38.7235C14.0222 38.6931 13.8521 38.4904 13.866 38.256C14.0261 35.5484 14.4095 30.6476 14.877 29.1081C14.9185 28.9713 15.0325 28.8753 15.1711 28.8403L18.2182 28.0703M18.02 39.2154L18.436 28.0152M24.4618 40.2134C24.4763 34.1318 26.5564 21.7556 34.7603 20.9035C42.9315 20.0548 44.6904 19.7426 44.5507 19.6915M24.4618 40.2134L30.1945 41.203M18.2182 28.0703L18.436 28.0152M18.2182 28.0703L15.327 27.3682C15.0894 27.3105 14.9406 27.0743 15.0076 26.8391C15.7458 24.2505 18.4171 19.4811 24.2259 18.155C26.3826 17.6627 28.5083 17.4217 30.5677 17.3703M18.436 28.0152C19.3115 25.1122 22.9636 18.919 30.5677 17.3703M65.7704 22.1503C60.4678 21.9367 48.838 21.1468 44.5507 19.6915M44.5507 19.6915L44.549 19.6909C44.5294 19.6843 44.51 19.6776 44.4907 19.671C40.6811 18.3509 35.8419 17.2387 30.5677 17.3703M30.1945 41.203L29.4273 30.2241C29.4143 30.0394 29.5162 29.8658 29.6838 29.787L33.9996 27.757C34.0735 27.7223 34.1555 27.7084 34.2368 27.7168L47.7844 29.1225C47.9181 29.1364 48.0385 29.2095 48.1125 29.3217L51.0793 33.821C51.1557 33.9369 51.1741 34.0816 51.1292 34.213L47.7117 44.2083C47.6873 44.2797 47.6813 44.3562 47.6943 44.4305M30.1945 41.203L28.9921 54.1338C28.9817 54.2461 29.0139 54.3583 29.0824 54.4479L30.901 56.8254C30.9657 56.91 31.0584 56.9688 31.1625 56.9913L45.7299 60.1397C45.8552 60.1667 45.9861 60.1389 46.0895 60.0632L49.708 57.4155C49.8458 57.3148 49.9144 57.1446 49.885 56.9765L47.6943 44.4305" stroke="url(#paint0_linear_142_277)" stroke-width="3" stroke-linecap="round" stroke-linejoin="bevel"/>
<defs>
<linearGradient id="paint0_linear_142_277" x1="41.8803" y1="12.4515" x2="64.1916" y2="82.1178" gradientUnits="userSpaceOnUse">
<stop stop-color="#FF00B8"/>
<stop offset="1" stop-color="#99006E"/>
</linearGradient>
</defs>
</svg>
