<svg width="100" height="100" viewBox="0 0 100 100" fill="none" xmlns="http://www.w3.org/2000/svg">
<rect width="100" height="100" rx="15" fill="#1C1C1E"/>
<path d="M62.3903 83.902L60.7621 85L55.0632 83.3529L55.6059 81.9804C52.9219 80.9836 34.6196 76.5817 24.6691 74.5686L23.5836 75.9412L17.6134 75.1176L18.1561 73.7451L15.7138 73.4706L19.2416 62.7647L18.6989 55.6275L15.7138 42.451M62.3903 83.902L66.1896 85L72.4312 77.0392H73.5167L75.9591 73.7451V71.8235L79.487 67.4314C78.7633 62.3987 77.8587 50.7412 80.0297 44.3725L81.3866 43.8235L81.9294 39.9804L83.5576 39.7059L84.3717 37.5098C84.7336 35.0392 85.4572 30.0431 85.4572 29.8235C85.4572 29.6039 85.8191 28.817 86 28.451V22.9608C86 22.4118 85.6201 21.3137 84.1004 21.3137M62.3903 83.902L65.1041 70.451L66.1896 50.1072M84.1004 21.3137C82.2007 21.3137 76.7732 30.098 74.6022 36.6863C72.8654 41.9569 71.8885 48.5817 71.6171 51.2353L66.1896 50.1072M84.1004 21.3137L78.9442 21.0392L77.8587 19.1176L71.0743 18.8431L67.8178 20.4902L40.1375 18.2941L37.4238 15.8235L31.7249 15L28.197 16.3725H26.5688C18.319 16.3725 14.0855 26.0719 13 30.9216V42.451H15.7138M51.8067 47.1176L53.9777 36.9608L51.5353 34.4902L50.1784 31.7451L35.2528 29.8235L31.7249 32.0196L29.5539 33.6667L30.9108 44.3725M51.8067 47.1176V61.9412L48.5502 63.8627L32.539 60.8431L29.5539 57.2745L30.9108 44.3725M51.8067 47.1176L66.1896 50.1072M30.9108 44.3725L26.026 43.549L24.1264 44.098L17.8848 43.549L17.6134 42.451H15.7138M20.5985 43.8235V29.8235L26.5688 18.5686L34.1673 15.549M60.7621 48.7647L63.4758 35.0392L69.9888 21.8627L74.6022 19.1176" stroke="url(#paint0_linear_150_217)" stroke-width="4"/>
<defs>
<linearGradient id="paint0_linear_150_217" x1="49.5" y1="15" x2="49.5" y2="85" gradientUnits="userSpaceOnUse">
<stop offset="0.15" stop-color="#EE05BB"/>
<stop offset="1" stop-color="#330028"/>
</linearGradient>
</defs>
</svg>
