<svg width="100" height="100" viewBox="0 0 100 100" fill="none" xmlns="http://www.w3.org/2000/svg">
<rect width="100" height="100" fill="white"/>
<path fill-rule="evenodd" clip-rule="evenodd" d="M100 0H0V100H100V0ZM34.0825 12.5257L33.4315 12.4316L32.8185 12.6701L29.7278 13.8725H28.5688C23.3406 13.8725 19.5612 16.9727 17.0826 20.3489C14.6077 23.7199 13.1599 27.6969 12.5604 30.3755L12.5 30.6452V30.9216V42.451V44.951H15H15.7168L18.22 56.0004L18.711 62.4564L15.3393 72.6882L14.3761 75.6112L16.6297 75.8645L16.1177 77.1591L19.2718 77.5942L25.242 78.4177L26.6579 78.613L27.5445 77.492L27.6746 77.3275C32.4709 78.3275 38.7377 79.7571 44.2792 81.0866C48.3794 82.0704 51.9688 82.973 54.2776 83.5987L53.7271 84.9911L56.3691 85.7546L62.068 87.4017L63.1908 87.7262L64.1599 87.0727L64.8191 86.6282L67.4955 87.4017L69.1161 87.8701L70.157 86.5425L75.6479 79.5392H76.7753L77.525 78.5282L79.9673 75.2341L80.4591 74.5708V73.7451V72.7032L83.4361 68.9969L84.1161 68.1504L83.9615 67.0755C83.6137 64.6564 83.2167 60.5945 83.1727 56.3769C83.1335 52.6085 83.381 48.9462 84.0811 46.2394L84.3243 46.141L85.6605 45.6004L85.8621 44.1731L86.149 42.1415L87.3991 41.9307L87.9017 40.5749L88.7159 38.3788L88.8073 38.1323L88.8454 37.8721C89.0265 36.635 89.2984 34.765 89.5251 33.1756C89.6384 32.3815 89.741 31.6535 89.8155 31.1082C89.8526 30.8366 89.8837 30.6037 89.9058 30.4284L89.9083 30.4089L89.9084 30.4084C89.9125 30.3769 89.9197 30.3217 89.9273 30.2544C89.9381 30.2271 89.9511 30.1951 89.9666 30.1581C90.0544 29.9486 90.1668 29.7091 90.2412 29.5588L90.5 29.0351V28.451V22.9608C90.5 22.2067 90.2623 21.2 89.5434 20.3342C88.7555 19.3855 87.5778 18.8336 86.1768 18.8143L82.4465 18.6157L82.0354 17.888L81.3507 16.676L79.9598 16.6197L73.1754 16.3452L72.526 16.3189L71.946 16.6122L69.3159 17.9425L43.188 15.8696L41.1068 13.9749L40.54 13.4589L39.7813 13.3492L34.0825 12.5257ZM21.113 23.3079C22.2798 21.7186 23.6184 20.4571 25.1429 19.692L20.39 28.652L20.0985 29.2015V29.8235V39.951H19.6134H17.7138H17.5V31.2078C18.0216 29.0395 19.2146 25.8937 21.113 23.3079ZM25.9073 46.5884L21.119 46.1672L23.1371 55.0751L23.1777 55.2545L23.1917 55.4379L23.7344 62.5751L23.7723 63.073L23.616 63.5471L21.0514 71.33L23.6826 71.6257L23.109 73.0762L24.5094 73.2693L24.7083 73.0178L25.6604 71.8139L27.1649 72.1183C32.1812 73.1331 39.2764 74.7444 45.4457 76.2246C51.5177 77.6814 56.9555 79.072 58.4763 79.6368L60.8696 80.5256L60.3993 81.7148L62.1775 82.2287L64.6174 70.1355L65.5787 52.1179L56.3067 50.1907V61.9412V63.3688L55.0772 64.0943L51.8207 66.0159L51.0109 66.4937L50.0869 66.3194L34.0757 63.2998L33.1959 63.1339L32.6215 62.4472L29.6363 58.8785L28.9569 58.0662L29.0676 57.013L30.1788 46.4472L28.1725 46.109L26.8205 46.4997L26.3722 46.6293L25.9073 46.5884ZM72.4638 75.4967L67.3104 82.0696L69.5547 70.9454L69.5908 70.7665L69.6005 70.5842L70.5309 53.1473L73.1083 53.683L75.8221 54.247L76.1041 51.4896C76.3667 48.9221 77.3197 42.4971 78.9766 37.4687C79.9875 34.4012 81.7923 30.7366 83.5799 27.8435C84.2659 26.7331 84.922 25.7811 85.5 25.0439V27.8927C85.4512 28.0013 85.4019 28.1142 85.3549 28.2262C85.2868 28.3889 85.2094 28.5837 85.1446 28.7782L85.1403 28.7912C85.1075 28.8883 84.99 29.2366 84.9629 29.6539C84.9607 29.673 84.9556 29.7194 84.9451 29.8026C84.9262 29.9522 84.8979 30.165 84.8615 30.4313C84.7891 30.9617 84.6881 31.6783 84.5752 32.4695C84.365 33.9431 84.1154 35.6619 83.9362 36.8875L83.7161 37.4811L83.5137 37.5152L81.7098 37.8193L81.4539 39.6308L81.1127 42.0467L81.092 42.0551L80.0323 42.4839L79.6635 43.5659C78.4339 47.1727 78.1272 52.0365 78.173 56.429C78.2135 60.3178 78.5357 64.0713 78.8666 66.7016L76.01 70.258L75.4591 70.9438V71.8235V72.9194L74.2581 74.5392H73.2145L72.4638 75.4967ZM79.442 23.4628L80.4299 23.5154C80.061 24.0542 79.6912 24.6247 79.3263 25.2153C77.3824 28.3614 75.388 32.3831 74.2278 35.9038C72.8664 40.0354 71.963 44.9038 71.4779 48.2372L68.6983 47.6595L65.6541 47.0267L67.864 35.8496L73.9025 23.6332L77.4501 21.5222L78.3667 21.5593L78.7675 22.2688L79.442 23.4628ZM63.0233 34.5543L60.7585 46.0092L56.777 45.1816L58.4225 37.4833L58.7046 36.1632L57.7556 35.2032L55.5974 33.0201L54.4196 30.6373L53.8261 29.4366L52.4977 29.2656L37.572 27.344L36.6882 27.2302L35.9316 27.7011L32.4037 29.8972L32.3058 29.9582L32.2139 30.0279L30.0429 31.675L28.8921 32.548L29.0737 33.981L30.0074 41.3478L28.4416 41.0838L27.8795 40.989L27.3319 41.1473L25.8806 41.5668L25.0985 41.498V30.4456L30.3464 20.5524L36.8321 17.975L38.3076 18.1882L40.4545 20.1428L41.0871 20.7186L41.9398 20.7863L68.6834 22.9081L63.2347 33.9314L63.0877 34.2288L63.0233 34.5543ZM86.8299 23.6403C86.8297 23.6417 86.8149 23.652 86.7866 23.6668C86.8161 23.6463 86.8302 23.6389 86.8299 23.6403ZM89.9572 29.8235C89.9572 29.8762 89.9554 29.9247 89.9526 29.968C89.9555 29.9182 89.9572 29.8691 89.9572 29.8235ZM35.144 34.081L37.8174 32.4169L50.5308 34.0536L51.2942 35.598L51.4733 35.9603L51.7574 36.2478L53.2507 37.7583L51.3619 46.5951L51.3067 46.8534V47.1176V60.5136L50.0895 61.2318L35.8822 58.5524L34.151 56.4828L35.3971 44.634L35.4274 44.3458L35.3909 44.0582L34.2157 34.7853L35.144 34.081Z" fill="url(#paint0_radial_160_109)"/>
<defs>
<radialGradient id="paint0_radial_160_109" cx="0" cy="0" r="1" gradientUnits="userSpaceOnUse" gradientTransform="translate(50 50) rotate(90) scale(50)">
<stop stop-color="#EE05BB"/>
<stop offset="1" stop-color="#C145A6"/>
</radialGradient>
</defs>
</svg>
