<svg width="100" height="100" viewBox="0 0 100 100" fill="none" xmlns="http://www.w3.org/2000/svg">
<rect width="100" height="100" fill="url(#paint0_radial_157_151)"/>
<path fill-rule="evenodd" clip-rule="evenodd" d="M60.2761 48.4683L60.1795 48.5803L78.4455 63.2707C78.9769 62.3841 79.239 61.3254 79.1309 60.2175L76.604 34.3406C76.4803 33.073 75.8933 31.9623 75.0271 31.1598C71.1561 35.8514 64.5192 43.5477 60.2761 48.4682L60.2761 48.4683ZM73.2981 30.1126C69.4225 34.7992 62.9361 42.321 58.7507 47.1746L57.989 48.058C56.0042 50.3599 54.4292 52.1078 53.6131 52.8681C51.198 55.118 48.5724 54.2229 47.5645 53.5099L42.2518 49.4533L42.2515 49.453L23.2966 34.9941C23.9075 34.6317 24.6058 34.3943 25.3595 34.3207L71.1418 29.8502C71.8963 29.7765 72.628 29.8746 73.2981 30.1126ZM21.7956 36.3646L40.1793 50.3878L24.3347 68.1246C23.8229 67.4257 23.4862 66.5845 23.3959 65.6599L20.8691 39.783C20.7457 38.5186 21.1045 37.3183 21.7956 36.3646ZM25.8142 69.4705C26.699 69.9982 27.7542 70.2581 28.8582 70.1503L74.6405 65.6798C75.5598 65.59 76.3966 65.2566 77.0932 64.7497L58.8713 50.0947C57.1848 52.0354 55.7882 53.5752 54.9764 54.3315C51.6179 57.4602 47.8633 56.1822 46.3895 55.1284L46.3767 55.1193L46.3642 55.1097L41.7739 51.6048L25.8142 69.4705Z" fill="white"/>
<defs>
<radialGradient id="paint0_radial_157_151" cx="0" cy="0" r="1" gradientUnits="userSpaceOnUse" gradientTransform="translate(50 50) rotate(90) scale(50)">
<stop stop-color="#FF35BA"/>
<stop offset="0.0001" stop-color="#FF55C5"/>
<stop offset="0.885" stop-color="#EF0F88"/>
<stop offset="1" stop-color="#ED0D93"/>
</radialGradient>
</defs>
</svg>
