<svg width="100" height="100" viewBox="0 0 100 100" fill="none" xmlns="http://www.w3.org/2000/svg">
<rect width="100" height="100" rx="15" fill="#1C1C1E"/>
<path d="M45.9945 18.446C45.143 18.0601 44.25 18.8584 43.75 19.3584C42.8644 20.244 40.35 19.8582 38.75 17.8582C36.75 15.3582 34.25 10.8582 25.75 17.3582C18.95 22.5582 23.9387 24.7234 27.2831 25.156C28.1721 25.0591 29.5055 26.1251 28.8832 27.8695C28.261 29.6139 28.6165 29.8077 29.5055 30.4861C30.3944 31.1645 29.8611 29.9047 30.75 31.3583M45.9945 18.446C46.846 18.832 47.1299 19.218 46.9407 22.4987C46.7514 25.7794 48.25 25.3584 48.75 26.3584C49.5833 26.6492 51.15 27.5562 50.75 28.8584C50.25 30.4861 47.75 30.8584 51.25 32.8584C54.75 34.8584 52.25 29.3584 55.75 32.3584C59.25 35.3584 54.112 36.1292 56.931 37.4938C59.75 38.8584 63.75 35.5556 63.75 37.3584C63.75 38.8584 64.25 40.8585 65.25 40.3584C67.25 39.3584 68.85 42.4584 65.25 48.8584C64.9167 49.5566 63.45 51.1341 60.25 51.8584C56.25 52.7638 56.319 57.8584 57.75 58.8584M45.9945 18.446C50.1901 12.1162 52.2463 17.6522 52.75 21.2115C52.94 24.1313 55.6957 25.1381 55.2206 23.7285C54.7455 22.319 55.6957 20.3054 56.931 20.8088C58.1663 21.3122 59.9717 20.5067 59.0215 19.6006C58.0713 18.6945 58.0713 17.0835 59.0215 16.0767C59.2432 15.372 66.2485 16.4604 66.9084 15.976C67.75 15.3583 69.474 14.7343 70.5192 14.5665C75.5335 13.7615 81.1916 19.4609 81.5885 19.2672C81.9854 19.0735 86.1527 18.4923 85.7558 22.3669C85.3589 26.2415 88.1372 27.5008 86.6488 29.3413C85.1605 31.1817 84.2675 30.6005 83.2753 31.1817C82.2831 31.7629 83.0769 34.7658 84.9621 34.8626C86.8473 34.9595 85.8551 36.025 88.6333 38.0592C91.4115 40.0934 90.6988 43.2862 90.7169 44.5492C90.75 46.8583 88.0379 57.723 88.7325 58.0136C89.427 58.3042 90.5185 59.9509 90.0224 61.6945C89.5263 63.4381 83.9698 62.8569 85.5574 65.7629C87.1449 68.6689 84.8628 68.6689 84.466 69.8313C84.0691 70.9937 85.9543 72.4467 83.9698 73.2216C82.3823 73.8415 82.5146 75.0943 82.7792 75.6432C82.9776 76.2567 82.8189 77.4449 80.5963 77.2899C77.8181 77.0962 76.9251 78.7429 78.5126 79.2273C79.7827 79.6147 79.5963 82.8584 77.75 84.3583C77.25 84.8583 65.25 88.8583 65.25 81.8583C65.25 76.2583 62.7931 78.1496 61.0647 78.2953C60.1724 78.5656 59.5776 77.9349 59.181 77.0341C58.7845 76.1332 60.4698 75.6828 57.8922 74.6018C56.9405 74.4577 51.8118 76.6737 51.7457 76.9439C51.7126 77.6646 51.4086 79.1601 50.4569 79.3763C48.5546 80.2036 37.25 88.3584 35.75 85.3584C32.9482 79.7548 31.25 85.8584 29.25 82.3584C27.65 79.5584 27.8797 78.8517 28.1945 78.8484M28.1945 78.8484C28.4889 78.37 29.3916 77.2985 30.6476 76.8392C35.2594 73.3201 32.75 80.8584 37.75 76.3584C42.75 71.8584 36.75 73.2216 43.25 67.3584C49.75 61.4952 48.25 65.7629 54.75 64.3584C59.95 63.2348 58.9167 60.2236 57.75 58.8584M28.1945 78.8484C27.802 78.0511 27.75 77.3584 26.0358 77.1263C24.9406 77.037 22.55 77.1584 21.75 78.3584C20.75 79.8584 15.25 82.8584 13.75 76.3584C13.1879 73.9224 14.25 70.8584 15.25 67.8584C15.75 66.5251 15.95 63.8584 12.75 63.8584C8.75 63.8584 9.75 58.1246 11.75 54.8584C13.35 52.2454 15.8587 52.3732 16.9131 52.7638C17.7326 53.1246 19.5863 53.3275 20.4456 51.2515M35.75 45.3583C30.55 40.1583 29.9167 35.1915 30.25 33.3582C31.25 30.8582 31.0055 31.5 29.5055 31C28.3055 30.6 25.0837 32 23.5 32C20.2069 32.9744 22.3322 29.4676 18.6517 26.8368C16.9605 25.2967 13.75 20.3584 13.25 25.3584C12.7806 30.052 11.25 28.3584 10.25 31.3584C9.25 34.3584 12.25 32.8584 14.25 35.8584C16.25 38.8584 11.25 38.3584 13.75 41.3584C16.25 44.3584 15.75 43.3584 15.25 46.8584C14.85 49.6584 18.5471 50.9538 20.4456 51.2515M35.75 45.3583C37.75 47.8584 43.35 43.0582 47.75 45.8582C53.25 49.3582 40.25 53.3583 49.25 58.8583C49.75 59.1917 51.55 59.6584 54.75 58.8584C57.95 58.0584 57.0851 57.8584 57.75 58.8584M35.75 45.3583C36.5833 45.719 37.85 47.1239 36.25 49.8584C34.25 53.2765 30.75 48.3584 28.75 50.8584C27.15 52.8584 22.25 47.8584 20.4456 51.2515" stroke="url(#paint0_linear_146_79)" stroke-width="4"/>
<defs>
<linearGradient id="paint0_linear_146_79" x1="50.393" y1="14" x2="50.393" y2="86.0183" gradientUnits="userSpaceOnUse">
<stop stop-color="#F13333"/>
<stop offset="1" stop-color="#8B1E1E"/>
</linearGradient>
</defs>
</svg>
