<svg width="100" height="100" viewBox="0 0 100 100" fill="none" xmlns="http://www.w3.org/2000/svg">
<rect width="100" height="100" rx="15" fill="#1C1C1E"/>
<path d="M65.9952 36C66.0261 36.1667 65.9212 36.54 65.2552 36.7C64.4227 36.9 63.5901 36.3 61 37" stroke="#F13333" stroke-width="2"/>
<path d="M61 37C60.8621 35.96 60.4 33.976 59.6552 34.36C58.9103 34.744 58.2414 34.28 58 34" stroke="#F13333" stroke-width="2"/>
<path d="M58 56C58.6102 55.9681 60.0461 55.5791 60.9076 54.2783C61.9845 52.6522 60.3691 52.5565 63.169 51.313C65.4089 50.3183 62.5947 48.4116 60.9076 47.5826C60.5845 47.5826 60.5199 47.0661 62.846 45" stroke="#F13333" stroke-width="2"/>
<path d="M62.8441 45C63.1514 44.5161 63.2129 43.2387 61 42" stroke="#F13333" stroke-width="2"/>
<path d="M57 56C57.25 55.75 58.2 55.2 60 55" stroke="#F13333" stroke-width="2"/>
<path d="M40 14V15.0614C40.3154 15.2865 40.9272 15.9491 40.8515 16.7982C40.7569 17.8596 44.4469 18.4386 44.6361 18.0526C44.8253 17.6667 45.393 16.7018 46.2445 17.0877C47.096 17.4737 47.3799 17.8596 47.1907 21.1404C47.0014 24.4211 49.1776 23.9386 48.9883 25" stroke="#F13333" stroke-width="2"/>
<path d="M37 83H36.2499C35.5936 82.1045 33.9808 80.4926 32.7807 81.209C31.2804 82.1045 30.1553 78.0746 31.843 77" stroke="#F13333" stroke-width="2"/>
<path d="M32 77L32.875 75.8861C32.875 75.7848 33.3028 75.7646 35.0139 76.4937C37.1528 77.4051 36.8611 74.4683 36.8611 72.7468C36.8611 71.0253 36.8611 70.2152 39 69" stroke="#F13333" stroke-width="2"/>
<path d="M39 69.2936C39.1333 69.3684 39.58 69.5628 40.3 69.7424C41.2 69.9667 40.7 69.518 41.8 69.0692C42.9 68.6204 41 70.5277 45 69.8546" stroke="#F13333" stroke-width="2"/>
<path d="M45 70L45.8026 68.913C46.2188 69.0217 47.176 69.1522 47.6755 68.8043C48.2997 68.3696 49.2808 66.6304 48.924 65" stroke="#F13333" stroke-width="2"/>
<path d="M49 65C49.6667 64.3821 51 62.7171 51 61" stroke="#F13333" stroke-width="2"/>
<path d="M51 60.9937C51.8462 61.0515 53.6308 60.7337 54 59" stroke="#F13333" stroke-width="2"/>
<path d="M54 59C55.2766 58.6333 57.8638 57.52 58 56" stroke="#F13333" stroke-width="2"/>
<path d="M26.5 27.5C27 28 28.3 29.1 29.5 29.5C31 30 31.5 29.5 30.5 32" stroke="#F13333" stroke-width="2"/>
<path d="M44 16.6626L45.4 15.9878L46.7 15.088C47 14.8631 47.88 14.9305 49 17" stroke="#F13333" stroke-width="2"/>
<path d="M48.534 17C49.1031 17 50.362 16.7 50.844 15.5C51.3261 14.3 50.5762 13.8 50.141 13.7L49.0362 13.8L48.534 12.7C48.1992 12.3 47.4493 11.48 47.1279 11.4C46.8065 11.32 45.9896 11.3 45.6213 11.3L45.32 11H43.8135C43.5122 11.2 43.1908 12.04 44.3157 13.8C45.7218 16 42.8091 13.7 43.01 15.8C43.2109 17.9 43.4117 16.2 43.6126 16.7" stroke="#F13333" stroke-width="2"/>
<path d="M63.3131 76C63.154 76.7579 62.9313 78.2736 63.3131 78.2736C63.6948 78.2736 63.9175 78.5768 63.9811 78.7284C64.013 79.0618 64.2102 79.8561 64.7447 80.3654C65.2791 80.8747 64.0766 82.2146 63.4085 82.8209H62.3587C61.9769 82.8209 61.1752 82.93 61.0225 83.3666C60.8698 83.8031 61.5315 83.7304 61.8815 83.6394L62.2632 83.3666C62.3587 83.3363 62.5877 83.3848 62.7404 83.8213C62.9313 84.367 62.5496 84.6398 63.2176 85.1855C63.8857 85.7312 64.8401 85.6402 65.1264 87.1863C65.4128 88.7324 68.4668 87.8229 68.7532 86.5497C69.0395 85.2764 69.9939 86.4587 70.7574 86.1859C71.5209 85.9131 71.4255 85.9131 71.7118 84.276C71.9981 82.639 74.575 83.4575 75.7203 84.5489C76.8656 85.6402 81.5421 83.3666 81.3513 82.9119C81.1604 82.4571 83.2601 81.0929 80.7786 80.1835" stroke="#F13333" stroke-width="2"/>
<path d="M80.5486 80C80.4825 79.4511 80.0327 78.2564 78.7626 77.8689C77.1751 77.3846 78.0681 75.7379 80.8463 75.9316C83.0689 76.0866 83.2276 74.8984 83.0292 74.2849C82.7646 73.736 82.6323 72.4832 84.2198 71.8633C86.2043 71.0884 84.3191 69.6354 84.716 68.473C85.1128 67.3106 87.3949 67.3106 85.8074 64.4046C84.2198 61.4986 89.7763 62.0798 90.2724 60.3362C90.7685 58.5926 89.677 56.9459 88.9825 56.6553C88.2879 56.3647 87.0973 56.2678 89.4786 54.6211C91.3837 53.3037 90.537 48.0019 89.8755 45.5157C90.2724 45.1605 91.0463 44.1983 90.9669 43.1909C90.8677 41.9317 91.6615 38.7351 88.8833 36.7009C86.1051 34.6667 87.0973 33.6012 85.2121 33.5043C83.3268 33.4074 82.5331 30.4046 83.5253 29.8234C84.5175 29.2422 85.4105 29.8234 86.8988 27.9829C88.3872 26.1425 85.609 24.8832 86.0058 21.0086C86.4027 17.1339 82.2354 17.7151 81.8385 17.9089C81.4416 18.1026 79.0603 19.1681 78.9611 15.6809C78.8619 12.1937 76.4805 13.9373 74 12" stroke="#F13333" stroke-width="2"/>
<path d="M74 12L70.7692 13.2082C69.724 13.376 67.5385 13.8928 67.1584 14.6177C66.7783 15.3426 66.2398 16.9334 66.0181 17.6382H65.448L65.2579 16.9334L65.733 16.128V15.3225C65.3846 14.8191 64.5357 13.8525 63.9276 14.0136C63.3195 14.1747 62.8507 14.752 62.6923 15.0205V13.913H62.2172V13.4095H61.9321V12.8055H61.552V13.2082H61.0769V13.4095H61.552V14.9198C61.1086 14.517 60.0317 13.913 59.2715 14.7184C58.3213 15.7252 58.3213 17.3361 59.2715 18.2423C60.2217 19.1484 58.4163 19.9539 57.181 19.4505C55.9457 18.947 54.9955 20.9607 55.4706 22.3702C55.9457 23.7798 53.19 22.773 53 19.8532" stroke="#F13333" stroke-width="2"/>
<path d="M37 82.9959C37.4483 83.053 38.6759 82.5337 40 80" stroke="#F13333" stroke-width="2"/>
<path d="M40 79.5496C40.3966 79.6997 41.2888 79.9099 41.6853 79.5496C42.181 79.0991 43.7672 78.0181 46.6422 77.8379C49.5172 77.6577 48.8233 78.5586 48.9224 78.3784C49.0216 78.1983 49.5172 78.2883 50.7069 78.0181C51.6586 77.8019 51.9626 76.3064 51.9957 75.5857C52.0618 75.3155 52.4319 74.811 53.3836 74.9551C54.3353 75.0993 54.6394 76.1563 54.6724 76.6668C54.6724 76.9971 54.4543 77.6577 53.5819 77.6577C52.7095 77.6577 54.4741 79.2192 55.4655 80H55.7629V79.009C55.8951 78.8889 56.2983 78.5947 56.8534 78.3784C57.4086 78.1622 56.7543 77.3875 56.3578 77.0271L55.2672 76.3965L54.4741 74.9551C54.8376 74.0242 56.0802 72.3787 58.1422 73.2435C60.7198 74.3245 59.0345 74.775 59.431 75.6759C59.8276 76.5767 60.4224 77.2074 61.3147 76.9371C62.0284 76.7208 61.2816 77.928 60.819 78.5586C60.7198 79.0391 60.7991 79.8919 61.9095 79.4595C63.2974 78.919 62.2069 77.6578 62.5043 77.3875C62.8017 77.1172 62.9009 76.5767 63 75.5858" stroke="#F13333" stroke-width="2"/>
<path d="M49.0127 25C48.7439 25.5105 48.2869 26.5676 48.6095 26.7117C48.932 26.8559 49.2815 27.5526 49.4159 27.8829C48.9119 28.2733 47.924 29.1802 48.0047 29.6847C48.0853 30.1892 48.5759 30.6757 48.8111 30.8559C49.0463 30.7958 49.5772 30.7117 49.8191 30.8559C50.061 31 50.5247 31.2763 50.7263 31.3964L51.5327 31.2162C51.7007 31.3964 52.0972 31.8108 52.3391 32.027C52.581 32.2432 53.9855 31.5766 54.6575 31.2162C54.9263 31.1862 55.5244 31.5405 55.7663 33.1982C56.0688 35.2703 57.48 34.0991 60 35" stroke="#F13333" stroke-width="2"/>
<path d="M40 13.7714L39.4915 13.2333H38.5763L37.8644 13.018C36.9492 12.9104 35.078 13.2333 34.9153 15.3857C34.7119 18.0762 33.5932 14.4171 32.0678 14.8476C30.8475 15.192 30.5424 15.9956 30.5424 16.3543C29.8644 16.2467 28.4068 16.2251 28 17" stroke="#F13333" stroke-width="2"/>
<path d="M28.4221 16.3356C28.3332 16.174 28.0487 15.8898 27.622 16.0448C27.1953 16.1999 26.9108 16.6909 26.822 16.9171C26.6738 17.0786 26.3953 17.4791 26.4664 17.7893C26.5553 18.1769 26.1108 19.0491 27.0886 19.0491C28.0665 19.0491 26.5553 22.0533 26.1108 22.2471C25.6663 22.441 26.6442 23.8946 27.5331 23.7977C28.4221 23.7008 29.7555 24.7668 29.1332 26.5112C28.511 28.2556 28.8665 28.4494 29.7555 29.1278C30.6444 29.8062 30.1111 28.5463 31 30" stroke="#F13333" stroke-width="2"/>
<path d="M27 27.9331C26.9031 27.6084 26.0508 27.1537 23.4163 27.9331C20.1232 28.9075 22.2541 27.2511 18.5735 24.6203C14.893 21.9895 16.249 28.5177 13.8276 29.4921C11.4062 30.4665 7.72564 31.9281 8.01621 32.805C8.24867 33.5065 10.4376 34.2665 11.503 34.5588C11.6645 34.5913 11.7936 34.9681 11.0187 36.2153C10.0502 37.7742 13.1496 34.9486 12.859 37.4819C12.5684 40.0153 16.8301 41.6717 16.249 41.964C15.7841 42.1979 15.0221 42.9059 14.6993 43.2307C15.0544 43.5555 15.726 44.3805 15.571 45.082C15.416 45.7835 14 46 14.5 47C16.6954 47.8769 20.685 49.2913 21.7698 50.9282C23.1258 52.9744 21.9635 48.9795 27 52" stroke="#F13333" stroke-width="2"/>
<path d="M32 50C34 48.5 37.5 45.1 35.5 43.5" stroke="#F13333" stroke-width="2"/>
<path d="M27 52C27.2 51.1025 28.48 49.479 32 50.1643" stroke="#F13333" stroke-width="2"/>
<path d="M13.2281 64C13.3196 63.9024 13.8687 62.3403 11.6724 60.8758C9.47605 59.4113 13.4111 54.2368 12.862 53.9439C12.3129 53.651 12.9535 50.3315 14.5092 50.0386C16.065 49.7457 17.3461 51.2102 17.1631 51.4054C16.9801 51.6007 18.2613 51.4055 20 50.2339" stroke="#F13333" stroke-width="2"/>
<path d="M45 68.0352C44.6327 68.3622 43.8796 69.0357 43.8061 69.1142C43.7143 69.2123 42.2449 69.0161 41.7857 68.2314C41.3265 67.4466 41.1429 68.918 39.949 68.8199C38.7551 68.7218 39.0689 67.7766 37.5612 69.3104C35.6327 71.2723 36.0918 68.8199 36 75" stroke="#F13333" stroke-width="2"/>
<path d="M36 74.9069C36 75.0982 35.6271 75.4235 34.1357 75.1939C32.2713 74.9069 32.4676 74.9069 30.8976 75.4809C29.6416 75.9402 28.7389 77.0117 28.4445 77.4901C28.052 76.6928 27.0708 75.2322 26.2858 75.7679C25.3046 76.4377 26.7764 77.2031 24.7159 78.5425C22.6553 79.8819 22.8515 77.7771 21.0853 78.5425C19.6723 79.1548 19.5808 76.5652 19.7116 75.1939C18.665 75.0663 16.3165 74.9069 15.2961 75.2896C14.0205 75.7679 15.0017 71.7496 12.6468 72.0367C10.2918 72.3237 10.5862 68.688 12.7449 66.7746C14.4718 65.2438 13.399 64.287 12.6468 64" stroke="#F13333" stroke-width="2"/>
<path d="M63 39.5C62 40.6667 60.3 42.9 61.5 42.5" stroke="#F13333" stroke-width="2"/>
<path d="M53 21C48.6 21 49.8333 17 51 15" stroke="#F13333" stroke-width="2"/>
<path d="M30.5 32C30.1667 33.8333 30.8 38.8 36 44" stroke="#F13333" stroke-width="2"/>
<path d="M62.5 39.5C65.1667 38.5 69.6 36.5 66 36.5" stroke="#F13333" stroke-width="2"/>
<path d="M35.5 45.4999C37.8333 43.9999 43.6 41.6999 48 44.4999C53.5 47.9999 40.5 52 49.5 57.5C58.5 63 54.5 55.5 59.5 55.5" stroke="#F13333" stroke-width="2"/>
</svg>
