<svg width="100" height="100" viewBox="0 0 100 100" fill="none" xmlns="http://www.w3.org/2000/svg">
<rect width="100" height="100" fill="#F13333"/>
<path d="M46.2445 17.0876C45.393 16.7017 44.5 17.5 44 18C43.1144 18.8856 40.6 18.4998 39 16.4998C37 13.9998 34.5 9.49977 26 15.9998C19.2 21.1998 24.1887 23.365 27.5331 23.7976C28.4221 23.7007 29.7555 24.7667 29.1332 26.5111C28.511 28.2555 28.8665 28.4493 29.7555 29.1277C30.6444 29.8061 30.0758 28.5882 30.9648 30.0419M46.2445 17.0876C47.096 17.4736 47.3799 17.8596 47.1907 21.1403C47.0014 24.421 48.5 24 49 25C49.3926 25.7852 51.4 26.1978 51 27.5C50.5 29.1277 48 29.5 51.5 31.5C55 33.5 52.5 28 56 31C59.5 34 54.362 34.7708 57.181 36.1354C60 37.5 64 34.1972 64 36C64 37.5 64.5 39.5001 65.5 39C67.5 38 69.1 41.1 65.5 47.5C65.1667 48.1982 63.7 49.7757 60.5 50.5C56.5 51.4054 56.569 56.5 58 57.5M46.2445 17.0876C50.4401 10.7578 52.4963 16.2938 53 19.8531C53.19 22.7729 55.9457 23.7797 55.4706 22.3701C54.9955 20.9606 55.9457 18.947 57.181 19.4504C58.4163 19.9538 60.2217 19.1483 59.2715 18.2422C58.3213 17.3361 58.3213 15.7251 59.2715 14.7183C59.4932 14.0136 66.4985 15.102 67.1584 14.6176C68 13.9999 69.724 13.3759 70.7692 13.2081C75.7835 12.4031 81.4416 18.1025 81.8385 17.9088C82.2354 17.7151 86.4027 17.1339 86.0058 21.0085C85.6089 24.8831 88.3872 26.1424 86.8988 27.9829C85.4105 29.8233 84.5175 29.2421 83.5253 29.8233C82.5331 30.4045 83.3269 33.4074 85.2121 33.5042C87.0973 33.6011 86.1051 34.6666 88.8833 36.7008C91.6615 38.735 90.9488 41.9278 90.9669 43.1908C91 45.4999 88.2879 56.3646 88.9825 56.6552C89.677 56.9458 90.7685 58.5925 90.2724 60.3361C89.7763 62.0797 84.2198 61.4985 85.8074 64.4045C87.3949 67.3105 85.1128 67.3105 84.716 68.4729C84.3191 69.6353 86.2043 71.0883 84.2198 71.8632C82.6323 72.4831 82.7646 73.7359 83.0292 74.2849C83.2276 74.8983 83.0689 76.0865 80.8463 75.9315C78.0681 75.7378 77.1751 77.3845 78.7626 77.8689C80.0327 78.2563 79.8463 81.5 78 82.9999C77.5 83.4999 65.5 87.4999 65.5 80.4999C65.5 74.8999 63.0431 76.7912 61.3147 76.9369C60.4224 77.2072 59.8276 76.5765 59.431 75.6757C59.0345 74.7748 60.7198 74.3244 58.1422 73.2434C57.1905 73.0993 52.0618 75.3153 51.9957 75.5855C51.9626 76.3062 51.6586 77.8017 50.7069 78.0179C48.8046 78.8453 37.5 87 36 84C33.1982 78.3964 31.5 84.5 29.5 81C27.9 78.2 28.1297 77.4933 28.4445 77.49M29.7555 29.5788C29.8442 29.6084 29.6739 29.5554 29.7555 29.5788ZM29.7555 29.5788C31.0539 29.9512 31.4409 29.6476 30.5 31.9998C30.1667 33.8331 30.8 38.7999 36 43.9999M29.7555 29.5788L25 30.5C19.5837 30.0669 22.2541 27.251 18.5735 24.6202C16.8823 23.0801 14 19 13.5 24C13.0306 28.6936 11.5 27 10.5 30C9.5 33 12.5 31.5 14.5 34.5C16.5 37.5 11.5 37 14 40C16.5 43 16 42 15.5 45.5C15.1 48.3 18.7971 49.5954 20.6956 49.8931M28.4445 77.49C28.7389 77.0116 29.6416 75.9401 30.8976 75.4808C35.5094 71.9617 33 79.5 38 75C43 70.5 37 71.8632 43.5 66C50 60.1368 48.5 64.4045 55 63C60.2 61.8764 59.1667 58.8652 58 57.5M28.4445 77.49C28.052 76.6927 28 76 26.2858 75.7679C25.1906 75.6786 22.8 75.8 22 77C21 78.5 15.5 81.5 14 75C13.4379 72.564 14.5 69.5 15.5 66.5C16 65.1667 16.2 62.5 13 62.5C9 62.5 10 56.7662 12 53.5C13.6 50.887 16.1087 51.0148 17.1631 51.4054C17.9826 51.7662 19.8363 51.9691 20.6956 49.8931M36 43.9999C38 46.5 43.6 41.6998 48 44.4998C53.5 47.9998 40.5 51.9999 49.5 57.4999C50 57.8333 51.8 58.3 55 57.5C58.2 56.7 57.3351 56.5 58 57.5M36 43.9999C36.8333 44.3606 38.1 45.7655 36.5 48.5C34.5 51.9181 31 47 29 49.5C27.4 51.5 22.5 46.5 20.6956 49.8931" stroke="white" stroke-width="4"/>
</svg>
