<svg width="1564" height="1582" viewBox="0 0 1564 1582" fill="none" xmlns="http://www.w3.org/2000/svg">
<path d="M0.636352 708.093L438.46 342.842L1524.66 817.907L1108.33 1202.73L0.636352 708.093Z" fill="#339A81"/>
<path d="M19.6364 735.093L457.46 369.842L1543.66 844.907L1127.33 1229.73L19.6364 735.093Z" fill="#4BD6B4"/>
<path d="M39.6364 764.093L477.46 398.842L1563.66 873.907L1147.33 1258.73L39.6364 764.093Z" fill="#6AFFDB"/>
<path d="M409.865 712.823C467.551 695.455 526.437 664.032 586.522 618.554L602.812 661.155C553.621 699.049 500.532 727.606 443.544 746.827C425.613 752.983 408.423 757.5 391.976 760.377L375.269 720.88C384.519 719.357 391.932 717.772 397.507 716.123L380.632 679.184C407.904 648.497 437.313 623.276 468.859 603.522C461.344 603.635 448.617 604.353 430.677 605.677L431.503 568.185C454.424 566.041 471.041 565.217 481.353 565.711C491.666 566.206 500.597 566.843 508.146 567.624L523.896 613.602C476.662 644.26 438.652 677.333 409.865 712.823ZM517.79 779.425C571.862 731.227 629.704 690.222 691.316 656.411L706.336 697.45C676.127 714.735 650.278 731.359 628.789 747.321C590.687 775.743 559.797 800.843 536.117 822.618L517.79 779.425ZM619.781 820.624C642.966 799.941 662.312 784.108 677.818 773.122C703.524 755.117 729.508 739.651 755.769 726.726C742.645 718.375 731.709 712.22 722.963 708.264L749.43 681.054C770.885 691.857 790.942 703.564 809.603 716.176C828.346 728.606 845.479 743.381 861.003 760.501L860.561 804.423C835.08 837.458 801.825 859.292 760.795 869.926C723.04 879.628 682.835 879.22 640.177 868.704L619.781 820.624ZM671.721 833.913C699.718 838.017 727.199 835.741 754.163 827.085C782.633 818.013 805.538 802.801 822.879 781.451C807.091 764.43 787.157 747.84 763.078 731.679L778.229 762.24C738.127 782.953 702.624 806.844 671.721 833.913ZM861.389 916.42C883.698 933.097 910.003 948.948 940.304 963.972L913.147 994.163C885.879 981.169 858.372 964.335 830.626 943.662L812.325 901.14C838.352 877.572 872.1 853.436 913.568 828.732C925.374 821.56 936.502 815.399 946.954 810.249C935.105 802.474 925.08 796.732 916.88 793.023L945.059 764.941C995.522 789.744 1036.78 819.604 1068.84 854.521L1035.21 887.38C1013.63 861.812 986.828 837.835 954.809 815.448L969.536 845.489C956.009 852.101 943.219 859.266 931.166 866.985C947.393 879.154 964.064 890.098 981.18 899.817L953.176 928.966C927.522 911.434 909.009 898.01 897.637 888.696C885.52 897.043 873.437 906.285 861.389 916.42ZM1192.91 983.083C1181.42 957.035 1169.61 935.116 1157.46 917.328C1134.5 918.578 1110.59 927.518 1085.73 944.148C1059.99 961.259 1040.64 981.703 1027.69 1005.48C1059.84 1010.59 1093.04 1002.22 1127.28 980.396C1138.8 972.877 1150.17 963.53 1161.37 952.353L1192.91 983.083C1165.2 1011.82 1137.26 1031.12 1109.09 1040.99C1078.54 1051.75 1044.97 1052.7 1008.37 1043.82L984.732 988.35C1015.41 934.616 1058.9 899.853 1115.21 884.06C1134.87 878.463 1156.28 875.528 1179.45 875.254C1198.08 898.609 1212.23 924.106 1221.9 951.748L1192.91 983.083Z" fill="#005949"/>
</svg>
