<svg width="1716" height="1056" viewBox="0 0 1716 1056" fill="none" xmlns="http://www.w3.org/2000/svg">
<g filter="url(#filter0_i_120_63)">
<path d="M205 1055L256.317 487.14L1360.3 55L1338.02 621.509L205 1055Z" fill="#FFAC2F"/>
</g>
<path d="M205 1055L256.317 487.14L1360.3 55L1338.02 621.509L205 1055Z" stroke="black"/>
<path d="M1397.66 614.023L1538.92 138.842L1416.46 39.0001L1397.66 614.023Z" fill="#FF6C02" stroke="#FFAE35" stroke-width="9"/>
<path d="M209.611 607L87.7994 906.434L179.605 1005.29L209.611 607Z" fill="#FF6C02" stroke="#FFAE35" stroke-width="9"/>
<path d="M765 882.291L1297.98 825.869L1340.09 680.212L765 882.291Z" fill="#FF6C02" stroke="#FFAE35" stroke-width="9"/>
<path d="M315.038 310.204C313.566 346.12 311.047 418.75 312.746 421.948L865.734 218.787L315.038 310.204Z" fill="#FF6C02" stroke="#FFAE35" stroke-width="9"/>
<path d="M732.852 5.60733C722.263 21.2548 701.072 53.0259 701.022 54.931L1026.39 118.672L732.852 5.60733Z" fill="#FF6C02" stroke="#FFAE35" stroke-width="9"/>
<path d="M1000.04 1044.29C888.649 1023.52 663.096 981.394 652.001 979.092L932.231 962.362L1000.04 1044.29Z" fill="#FF6C02" stroke="#FFAE35" stroke-width="9"/>
<path d="M1698.97 536.327C1634.21 561.23 1503.05 611.633 1496.54 614.024L1640.75 524.752L1698.97 536.327Z" fill="#FF6C02" stroke="#FFAE35" stroke-width="9"/>
<path d="M93.764 520.724C72.5556 508.542 29.7128 483.737 28.0089 481.975L202.953 349.381L93.764 520.724Z" fill="#FF6C02" stroke="#FFAE35" stroke-width="9"/>
<g filter="url(#filter1_i_120_63)">
<path d="M364.113 810.547C365.866 771.017 371.674 722.767 381.539 665.798C390.295 614.344 401.288 567.466 414.52 525.165L465.023 548.036C480.793 589.687 499.094 632.827 519.925 677.456C526.157 611.31 537.644 549.065 554.388 490.721L605.607 512.052C585.462 584.412 572.82 671.492 567.679 773.292L521.407 801.678C491.813 745.485 465.98 691.043 443.909 638.349C430.914 706.964 423.69 772.337 422.238 834.468L364.113 810.547ZM699.331 664.349C736.142 659.429 775.99 649.995 818.873 636.046L821.159 690.141C783.059 703.196 741.15 712.815 695.432 718.998L638.333 695.555C641.148 648.824 650.788 594.35 667.254 532.133C671.812 514.288 676.668 498.038 681.822 483.383C663.281 487.027 648.374 490.907 637.102 495.021L637.756 441.982C708.97 418.544 776.133 408.507 839.246 411.872L837.851 474.549C793.442 470.319 745.544 472.473 694.156 481.01L736.208 495.894C729.487 514.811 723.985 533.568 719.701 552.164C746.512 548.624 772.604 543.5 797.976 536.795L798.485 590.687C757.689 597.912 727.53 602.391 708.007 604.123C704.249 623.379 701.356 643.455 699.331 664.349ZM1074.33 535.141C1112.1 471.395 1134.32 391.89 1140.99 296.627L1195.66 319.253C1192.69 369.447 1182.28 419.092 1164.44 468.188C1146.59 517.284 1123.46 560.075 1095.04 596.562L1029.4 570.702C1028.64 561.613 1027.75 548.308 1026.75 530.79C1015.44 560.466 1003.31 586.328 990.349 608.375C985.847 616.263 981.095 624.243 976.092 632.314L901.214 602.159C891.593 539.245 892.864 478.174 905.027 418.946C894.856 429.188 883.684 441.356 871.512 455.45L837.328 418.959C857.576 395.104 872.798 378.477 882.993 369.078C893.348 359.337 902.486 351.318 910.407 345.021L967.852 371.745C952.419 440.681 947.52 506.199 953.153 568.299C989.666 505.01 1015.66 421.855 1031.15 318.835L1083.39 340.644L1081.15 355.513C1075.21 396.005 1071.96 427.142 1071.39 448.923C1070.97 478.883 1071.95 507.622 1074.33 535.141Z" fill="#FF6B00"/>
</g>
<defs>
<filter id="filter0_i_120_63" x="204.43" y="54.2556" width="1156.4" height="1005.5" filterUnits="userSpaceOnUse" color-interpolation-filters="sRGB">
<feFlood flood-opacity="0" result="BackgroundImageFix"/>
<feBlend mode="normal" in="SourceGraphic" in2="BackgroundImageFix" result="shape"/>
<feColorMatrix in="SourceAlpha" type="matrix" values="0 0 0 0 0 0 0 0 0 0 0 0 0 0 0 0 0 0 127 0" result="hardAlpha"/>
<feOffset dy="4"/>
<feGaussianBlur stdDeviation="2"/>
<feComposite in2="hardAlpha" operator="arithmetic" k2="-1" k3="1"/>
<feColorMatrix type="matrix" values="0 0 0 0 0 0 0 0 0 0 0 0 0 0 0 0 0 0 0.25 0"/>
<feBlend mode="normal" in2="shape" result="effect1_innerShadow_120_63"/>
</filter>
<filter id="filter1_i_120_63" x="277.573" y="247.86" width="995.579" height="613.281" filterUnits="userSpaceOnUse" color-interpolation-filters="sRGB">
<feFlood flood-opacity="0" result="BackgroundImageFix"/>
<feBlend mode="normal" in="SourceGraphic" in2="BackgroundImageFix" result="shape"/>
<feColorMatrix in="SourceAlpha" type="matrix" values="0 0 0 0 0 0 0 0 0 0 0 0 0 0 0 0 0 0 127 0" result="hardAlpha"/>
<feOffset dy="4"/>
<feGaussianBlur stdDeviation="2"/>
<feComposite in2="hardAlpha" operator="arithmetic" k2="-1" k3="1"/>
<feColorMatrix type="matrix" values="0 0 0 0 0 0 0 0 0 0 0 0 0 0 0 0 0 0 0.25 0"/>
<feBlend mode="normal" in2="shape" result="effect1_innerShadow_120_63"/>
</filter>
</defs>
</svg>
