<svg width="100" height="100" viewBox="0 0 100 100" fill="none" xmlns="http://www.w3.org/2000/svg">
<rect y="0.000488281" width="100" height="100" rx="15" fill="#1C1C1E"/>
<path d="M48.0782 86.0004L47.9287 87.9948L48.0034 88.0004H48.0782V86.0004ZM11 46.3338L9.40891 45.122L8.9724 45.6952L9.00165 46.415L11 46.3338ZM17.3467 38.0005L18.9072 36.7495L17.3063 34.7526L15.7556 36.7887L17.3467 38.0005ZM90 46.3338L91.9984 46.415L92.0276 45.6952L91.5911 45.122L90 46.3338ZM83.6533 38.0005L85.2444 36.7887L83.6937 34.7526L82.0928 36.7495L83.6533 38.0005ZM76.9725 46.3338L78.4374 47.6954L78.4872 47.6419L78.533 47.5848L76.9725 46.3338ZM48.0782 72.6671V70.6671H47.2834L46.7054 71.2127L48.0782 72.6671ZM43.0677 78.8338H41.0677V79.4636L41.4285 79.9798L43.0677 78.8338ZM53.5899 86.0004V88.0004H54.6729L55.2648 87.0934L53.5899 86.0004ZM58.2664 78.8338L59.9413 79.9267L60.7109 78.7474L59.86 77.6253L58.2664 78.8338ZM53.5899 72.6671L55.1834 71.4586L54.5832 70.6671H53.5899V72.6671ZM18.5159 23.6672L19.0563 21.7416L15.8569 20.8436L16.5613 24.0911L18.5159 23.6672ZM34.5497 28.1672L34.0093 30.0928L35.1209 30.4047L35.9469 29.5981L34.5497 28.1672ZM50.0825 13.0005L51.4797 11.5695L50.0825 10.2052L48.6852 11.5695L50.0825 13.0005ZM65.6152 28.1672L64.218 29.5981L65.044 30.4047L66.1557 30.0928L65.6152 28.1672ZM81.649 23.6672L83.6036 24.0911L84.308 20.8436L81.1086 21.7416L81.649 23.6672ZM69.4567 64.3338L70.2292 66.1786L70.3372 66.1333L70.4392 66.0758L69.4567 64.3338ZM30.5412 64.3338L29.5587 66.0758L29.6841 66.1466L29.8184 66.1986L30.5412 64.3338ZM50.7505 72.1671L50.0277 74.0319L50.7794 74.3233L51.523 74.0119L50.7505 72.1671ZM23.1924 27.755L23.7389 25.8311L20.54 24.9223L21.2368 28.174L23.1924 27.755ZM36.9357 31.6592L36.3891 33.583L37.5116 33.9019L38.3416 33.0816L36.9357 31.6592ZM50.2495 18.5005L51.6554 17.078L50.2495 15.6885L48.8436 17.078L50.2495 18.5005ZM63.5633 31.6592L62.1574 33.0816L62.9873 33.9019L64.1098 33.583L63.5633 31.6592ZM77.3065 27.755L79.2622 28.174L79.959 24.9223L76.76 25.8311L77.3065 27.755ZM66.8559 63.0375L67.6365 64.879L67.7451 64.8329L67.8475 64.7744L66.8559 63.0375ZM50.8221 69.8338L50.0916 71.6956L50.8513 71.9937L51.6026 71.6752L50.8221 69.8338ZM48.2277 84.006C42.6359 83.5869 34.0676 81.1883 26.7921 75.3717C19.5869 69.6113 13.575 60.4477 12.9984 46.2526L9.00165 46.415C9.62749 61.8199 16.2256 72.0452 24.2943 78.4959C32.2926 84.8904 41.6622 87.5251 47.9287 87.9948L48.2277 84.006ZM12.5911 47.5456L18.9378 39.2123L15.7556 36.7887L9.40891 45.122L12.5911 47.5456ZM15.7863 39.2515L22.467 47.5848L25.5879 45.0828L18.9072 36.7495L15.7863 39.2515ZM53.0713 87.9948C59.3378 87.5251 68.7074 84.8904 76.7057 78.4959C84.7744 72.0452 91.3725 61.8199 91.9984 46.415L88.0016 46.2526C87.425 60.4477 81.4131 69.6113 74.2079 75.3717C66.9324 81.1883 58.3641 83.5869 52.7723 84.006L53.0713 87.9948ZM91.5911 45.122L85.2444 36.7887L82.0622 39.2123L88.4089 47.5456L91.5911 45.122ZM82.0928 36.7495L75.4121 45.0828L78.533 47.5848L85.2137 39.2515L82.0928 36.7495ZM75.5076 44.9722L74.3611 46.2057L77.2909 48.9289L78.4374 47.6954L75.5076 44.9722ZM46.7054 71.2127C45.5667 72.2876 44.2418 73.8548 43.2284 75.1432C42.7148 75.7963 42.2594 76.4055 41.9254 76.88C41.7607 77.1139 41.6112 77.3355 41.4957 77.5229C41.4402 77.613 41.3733 77.7262 41.3135 77.8453C41.2844 77.9033 41.2402 77.9958 41.1989 78.1083C41.1767 78.1688 41.0677 78.4563 41.0677 78.8338H45.0677C45.0677 79.1946 44.9644 79.4583 44.9534 79.488C44.9234 79.5697 44.896 79.6246 44.8891 79.6385C44.8735 79.6695 44.872 79.6685 44.9012 79.6211C44.9552 79.5335 45.0522 79.3871 45.1963 79.1824C45.48 78.7794 45.891 78.2282 46.3725 77.616C47.3495 76.3738 48.5299 74.9911 49.4511 74.1215L46.7054 71.2127ZM48.0782 88.0004H53.5899V84.0004H48.0782V88.0004ZM55.2648 87.0934L59.9413 79.9267L56.5914 77.7408L51.9149 84.9075L55.2648 87.0934ZM59.86 77.6253L55.1834 71.4586L51.9963 73.8756L56.6728 80.0423L59.86 77.6253ZM53.5899 70.6671H48.0782V74.6671H53.5899V70.6671ZM41.4285 79.9798L46.4391 87.1464L49.7173 84.8544L44.7068 77.6878L41.4285 79.9798ZM17.9754 25.5928L34.0093 30.0928L35.0901 26.2416L19.0563 21.7416L17.9754 25.5928ZM35.9469 29.5981L51.4797 14.4315L48.6852 11.5695L33.1524 26.7362L35.9469 29.5981ZM48.6852 14.4315L64.218 29.5981L67.0125 26.7362L51.4797 11.5695L48.6852 14.4315ZM66.1557 30.0928L82.1895 25.5928L81.1086 21.7416L65.0748 26.2416L66.1557 30.0928ZM79.6945 23.2432C78.3076 29.6373 76.0367 39.3311 73.7342 47.6282C72.5814 51.7824 71.4318 55.5459 70.391 58.3591C69.8688 59.7708 69.3922 60.8927 68.9762 61.6887C68.7678 62.0875 68.5961 62.3626 68.4662 62.5368C68.3141 62.7408 68.3086 62.6851 68.4741 62.5918L70.4392 66.0758C70.9888 65.7658 71.393 65.3031 71.6727 64.928C71.9746 64.5233 72.2569 64.0474 72.5212 63.5415C73.0508 62.5282 73.5951 61.2265 74.1425 59.747C75.241 56.778 76.4254 52.8894 77.5886 48.6978C79.9181 40.3032 82.2069 30.5303 83.6036 24.0911L79.6945 23.2432ZM16.5613 24.0911C17.9566 30.5236 20.203 40.295 22.4903 48.6888C23.6324 52.8798 24.7957 56.7687 25.8782 59.7381C26.4176 61.2177 26.9552 62.5202 27.4802 63.5344C27.7423 64.0408 28.0228 64.5178 28.3238 64.9237C28.6028 65.2999 29.007 65.7646 29.5587 66.0758L31.5238 62.5918C31.6913 62.6863 31.6872 62.744 31.5368 62.5412C31.4085 62.3681 31.2387 62.094 31.0325 61.6958C30.6211 60.9008 30.1508 59.7796 29.6363 58.3681C28.6108 55.5552 27.4818 51.7919 26.3496 47.6371C24.0884 39.3393 21.8588 29.6441 20.4704 23.2432L16.5613 24.0911ZM68.6842 62.489L49.978 70.3223L51.523 74.0119L70.2292 66.1786L68.6842 62.489ZM51.4733 70.3023L31.264 62.469L29.8184 66.1986L50.0277 74.0319L51.4733 70.3023ZM22.6458 29.6788L36.3891 33.583L37.4822 29.7353L23.7389 25.8311L22.6458 29.6788ZM38.3416 33.0816L51.6554 19.923L48.8436 17.078L35.5298 30.2367L38.3416 33.0816ZM48.8436 19.923L62.1574 33.0816L64.9692 30.2367L51.6554 17.078L48.8436 19.923ZM64.1098 33.583L77.8531 29.6788L76.76 25.8311L63.0167 29.7353L64.1098 33.583ZM75.3509 27.3359C74.1627 32.8807 72.2174 41.2862 70.2455 48.4789C69.258 52.0808 68.2747 55.3383 67.3861 57.7694C66.94 58.99 66.5358 59.9521 66.1863 60.6288C66.0112 60.968 65.8711 61.1936 65.771 61.3295C65.6483 61.496 65.6711 61.411 65.8643 61.3007L67.8475 64.7744C68.37 64.4761 68.7439 64.038 68.9914 63.7021C69.2613 63.3357 69.5104 62.9096 69.7405 62.464C70.2016 61.571 70.6724 60.4303 71.1431 59.1425C72.0881 56.5569 73.1055 53.1754 74.1031 49.5365C76.1015 42.2473 78.0644 33.7635 79.2622 28.174L75.3509 27.3359ZM21.2368 28.174C22.4346 33.7635 24.3974 42.2473 26.3958 49.5365C27.3935 53.1754 28.4108 56.5569 29.3559 59.1425C29.8266 60.4303 30.2974 61.571 30.7584 62.464C30.9885 62.9096 31.2376 63.3357 31.5076 63.7021C31.755 64.038 32.1289 64.4761 32.6514 64.7744L34.6346 61.3007C34.8278 61.411 34.8506 61.496 34.728 61.3295C34.6278 61.1936 34.4878 60.968 34.3126 60.6288C33.9632 59.9521 33.5589 58.99 33.1128 57.7694C32.2242 55.3383 31.241 52.0808 30.2535 48.4789C28.2816 41.2862 26.3362 32.8807 25.148 27.3359L21.2368 28.174ZM66.0754 61.1961L50.0416 67.9924L51.6026 71.6752L67.6365 64.879L66.0754 61.1961ZM51.5526 67.9719L34.2303 61.1757L32.7694 64.8994L50.0916 71.6956L51.5526 67.9719Z" fill="url(#paint0_linear_139_174)"/>
<path d="M36 29.5005L50.5 15.5005" stroke="url(#paint1_linear_139_174)" stroke-width="2"/>
<defs>
<linearGradient id="paint0_linear_139_174" x1="50.5" y1="13" x2="50.5" y2="86" gradientUnits="userSpaceOnUse">
<stop stop-color="#FFD952"/>
<stop offset="1" stop-color="#886D0E"/>
</linearGradient>
<linearGradient id="paint1_linear_139_174" x1="43.25" y1="15.5005" x2="43.25" y2="29.5005" gradientUnits="userSpaceOnUse">
<stop stop-color="#FCD650"/>
<stop offset="1" stop-color="#E2BF41"/>
</linearGradient>
</defs>
</svg>
