<svg width="100" height="100" viewBox="0 0 100 100" fill="none" xmlns="http://www.w3.org/2000/svg">
<rect width="100" height="100" rx="15" fill="#1C1C1E"/>
<path d="M48.0782 85.9999C36.2199 85.1111 12.2025 75.9333 11 46.3333L17.3467 38L24.0275 46.3333M48.0782 85.9999H53.5899L58.2664 78.8333L53.5899 72.6666H48.0782C46.0183 74.6111 43.0677 78.5666 43.0677 78.8333L48.0782 85.9999ZM52.9218 85.9999C64.7801 85.1111 88.7975 75.9333 90 46.3333L83.6533 38L76.9725 46.3333L75.9704 47.5M30.7082 64.3333C27.6351 62.6 21.2995 36.5 18.5159 23.6667L34.5497 28.1667L50.0825 13L65.6152 28.1667L81.649 23.6667C78.8654 36.5 72.5298 62.6 69.4567 64.3333L50.7505 72.1666L30.5412 64.3333M33.643 63.0371C31.0089 61.5332 25.5784 38.8887 23.1924 27.7545L36.9357 31.6587L50.2495 18.5L63.5633 31.6587L77.3065 27.7545C74.9206 38.8887 69.4901 61.5332 66.8559 63.0371L50.8221 69.8333L33.4999 63.0371M34.2504 39.361L50.7505 31.861L66.3657 39.361L63.2505 56.861L50.7505 61.861L37.2505 56.861L34.2504 39.361Z" stroke="url(#paint0_linear_133_32)" stroke-width="4"/>
<path d="M36 29.5L50.5 15.5" stroke="url(#paint1_linear_133_32)" stroke-width="2"/>
<defs>
<linearGradient id="paint0_linear_133_32" x1="50.5" y1="12.9995" x2="50.5" y2="85.9995" gradientUnits="userSpaceOnUse">
<stop stop-color="#FFD952"/>
<stop offset="1" stop-color="#886D0E"/>
</linearGradient>
<linearGradient id="paint1_linear_133_32" x1="43.25" y1="15.5" x2="43.25" y2="29.5" gradientUnits="userSpaceOnUse">
<stop stop-color="#FCD650"/>
<stop offset="1" stop-color="#E2BF41"/>
</linearGradient>
</defs>
</svg>
