<svg width="100" height="100" viewBox="0 0 100 100" fill="none" xmlns="http://www.w3.org/2000/svg">
<rect width="100" height="100" rx="15" fill="white"/>
<path d="M48.0782 85.9999L47.9287 87.9944L48.0034 87.9999H48.0782V85.9999ZM11 46.3333L9.40891 45.1215L8.9724 45.6947L9.00165 46.4145L11 46.3333ZM17.3467 38L18.9072 36.749L17.3063 34.7521L15.7556 36.7882L17.3467 38ZM90 46.3333L91.9984 46.4145L92.0276 45.6947L91.5911 45.1215L90 46.3333ZM83.6533 38L85.2444 36.7882L83.6937 34.7521L82.0928 36.749L83.6533 38ZM76.9725 46.3333L78.4897 47.6365L78.5118 47.6108L78.533 47.5843L76.9725 46.3333ZM48.0782 72.6666V70.6666H47.2834L46.7054 71.2122L48.0782 72.6666ZM43.0677 78.8333H41.0677V79.4631L41.4285 79.9793L43.0677 78.8333ZM53.5899 85.9999V87.9999H54.6729L55.2648 87.0929L53.5899 85.9999ZM58.2664 78.8333L59.9413 79.9263L60.7109 78.7469L59.86 77.6248L58.2664 78.8333ZM53.5899 72.6666L55.1834 71.4581L54.5832 70.6666H53.5899V72.6666ZM18.5159 23.6667L19.0563 21.7411L15.8569 20.8431L16.5613 24.0906L18.5159 23.6667ZM34.5497 28.1667L34.0093 30.0923L35.1209 30.4042L35.9469 29.5976L34.5497 28.1667ZM50.0825 13L51.4797 11.569L50.0825 10.2047L48.6852 11.569L50.0825 13ZM65.6152 28.1667L64.218 29.5976L65.044 30.4042L66.1557 30.0923L65.6152 28.1667ZM81.649 23.6667L83.6036 24.0906L84.308 20.8431L81.1086 21.7411L81.649 23.6667ZM69.4567 64.3333L70.2292 66.1781L70.3372 66.1329L70.4392 66.0753L69.4567 64.3333ZM50.7505 72.1666L50.0277 74.0314L50.7794 74.3228L51.523 74.0114L50.7505 72.1666ZM23.1924 27.7545L23.7389 25.8306L20.54 24.9218L21.2368 28.1735L23.1924 27.7545ZM36.9357 31.6587L36.3891 33.5826L37.5116 33.9014L38.3416 33.0812L36.9357 31.6587ZM50.2495 18.5L51.6554 17.0775L50.2495 15.688L48.8436 17.0775L50.2495 18.5ZM63.5633 31.6587L62.1574 33.0812L62.9873 33.9014L64.1098 33.5826L63.5633 31.6587ZM77.3065 27.7545L79.2622 28.1735L79.959 24.9218L76.76 25.8306L77.3065 27.7545ZM66.8559 63.0371L67.6365 64.8785L67.7451 64.8324L67.8475 64.7739L66.8559 63.0371ZM50.8221 69.8333L50.0916 71.6951L50.8513 71.9932L51.6026 71.6747L50.8221 69.8333ZM48.2277 84.0055C42.6359 83.5864 34.0676 81.1878 26.7921 75.3712C19.5869 69.6108 13.575 60.4472 12.9984 46.2522L9.00165 46.4145C9.62749 61.8195 16.2256 72.0447 24.2943 78.4954C32.2926 84.8899 41.6622 87.5246 47.9287 87.9944L48.2277 84.0055ZM12.5911 47.5451L18.9378 39.2118L15.7556 36.7882L9.40891 45.1215L12.5911 47.5451ZM15.7863 39.251L22.467 47.5843L25.5879 45.0823L18.9072 36.749L15.7863 39.251ZM53.0713 87.9944C59.3378 87.5246 68.7074 84.8899 76.7057 78.4954C84.7744 72.0447 91.3725 61.8195 91.9984 46.4145L88.0016 46.2522C87.425 60.4472 81.4131 69.6108 74.2079 75.3712C66.9324 81.1878 58.3641 83.5864 52.7723 84.0055L53.0713 87.9944ZM91.5911 45.1215L85.2444 36.7882L82.0622 39.2118L88.4089 47.5451L91.5911 45.1215ZM82.0928 36.749L75.4121 45.0823L78.533 47.5843L85.2137 39.251L82.0928 36.749ZM75.4554 45.0302L74.4532 46.1968L77.4875 48.8032L78.4897 47.6365L75.4554 45.0302ZM46.7054 71.2122C45.5667 72.2871 44.2418 73.8543 43.2284 75.1427C42.7148 75.7958 42.2594 76.405 41.9254 76.8795C41.7607 77.1134 41.6112 77.335 41.4957 77.5224C41.4402 77.6125 41.3733 77.7257 41.3135 77.8449C41.2844 77.9028 41.2402 77.9953 41.1989 78.1078C41.1767 78.1683 41.0677 78.4558 41.0677 78.8333H45.0677C45.0677 79.1941 44.9644 79.4578 44.9534 79.4875C44.9234 79.5692 44.896 79.6242 44.8891 79.6381C44.8735 79.669 44.872 79.668 44.9012 79.6206C44.9552 79.533 45.0522 79.3867 45.1963 79.1819C45.48 78.7789 45.891 78.2277 46.3725 77.6155C47.3495 76.3734 48.5299 74.9906 49.4511 74.121L46.7054 71.2122ZM48.0782 87.9999H53.5899V83.9999H48.0782V87.9999ZM55.2648 87.0929L59.9413 79.9263L56.5914 77.7403L51.9149 84.907L55.2648 87.0929ZM59.86 77.6248L55.1834 71.4581L51.9963 73.8751L56.6728 80.0418L59.86 77.6248ZM53.5899 70.6666H48.0782V74.6666H53.5899V70.6666ZM41.4285 79.9793L46.4391 87.1459L49.7173 84.854L44.7068 77.6873L41.4285 79.9793ZM17.9754 25.5923L34.0093 30.0923L35.0901 26.2411L19.0563 21.7411L17.9754 25.5923ZM35.9469 29.5976L51.4797 14.431L48.6852 11.569L33.1524 26.7357L35.9469 29.5976ZM48.6852 14.431L64.218 29.5976L67.0125 26.7357L51.4797 11.569L48.6852 14.431ZM66.1557 30.0923L82.1895 25.5923L81.1086 21.7411L65.0748 26.2411L66.1557 30.0923ZM79.6945 23.2427C78.3076 29.6368 76.0367 39.3306 73.7342 47.6277C72.5814 51.7819 71.4318 55.5454 70.391 58.3586C69.8688 59.7703 69.3922 60.8923 68.9762 61.6882C68.7678 62.087 68.5961 62.3621 68.4662 62.5363C68.3141 62.7403 68.3086 62.6846 68.4741 62.5913L70.4392 66.0753C70.9888 65.7653 71.393 65.3026 71.6727 64.9276C71.9746 64.5228 72.2569 64.0469 72.5212 63.541C73.0508 62.5277 73.5951 61.226 74.1425 59.7465C75.241 56.7775 76.4254 52.8889 77.5886 48.6973C79.9181 40.3027 82.2069 30.5298 83.6036 24.0906L79.6945 23.2427ZM16.5613 24.0906C17.958 30.5298 20.2468 40.3027 22.5763 48.6973C23.7395 52.8889 24.924 56.7775 26.0224 59.7465C26.5698 61.226 27.1141 62.5277 27.6437 63.541C27.9081 64.0469 28.1903 64.5228 28.4922 64.9276C28.7719 65.3026 29.1761 65.7653 29.7257 66.0753L31.6908 62.5913C31.8563 62.6846 31.8508 62.7403 31.6987 62.5363C31.5688 62.3621 31.3971 62.087 31.1887 61.6882C30.7727 60.8923 30.2962 59.7703 29.7739 58.3586C28.7331 55.5454 27.5835 51.7819 26.4307 47.6277C24.1282 39.3306 21.8573 29.6368 20.4704 23.2427L16.5613 24.0906ZM68.6842 62.4885L49.978 70.3218L51.523 74.0114L70.2292 66.1781L68.6842 62.4885ZM51.4733 70.3018L31.264 62.4685L29.8184 66.1981L50.0277 74.0314L51.4733 70.3018ZM22.6458 29.6783L36.3891 33.5826L37.4822 29.7348L23.7389 25.8306L22.6458 29.6783ZM38.3416 33.0812L51.6554 19.9225L48.8436 17.0775L35.5298 30.2362L38.3416 33.0812ZM48.8436 19.9225L62.1574 33.0812L64.9692 30.2362L51.6554 17.0775L48.8436 19.9225ZM64.1098 33.5826L77.8531 29.6783L76.76 25.8306L63.0167 29.7348L64.1098 33.5826ZM75.3509 27.3354C74.1627 32.8802 72.2174 41.2857 70.2455 48.4784C69.258 52.0803 68.2747 55.3378 67.3861 57.7689C66.94 58.9895 66.5358 59.9516 66.1863 60.6283C66.0112 60.9676 65.8711 61.1931 65.771 61.329C65.6483 61.4955 65.6711 61.4105 65.8643 61.3002L67.8475 64.7739C68.37 64.4756 68.7439 64.0375 68.9914 63.7016C69.2613 63.3352 69.5104 62.9091 69.7405 62.4635C70.2016 61.5705 70.6724 60.4298 71.1431 59.1421C72.0881 56.5564 73.1055 53.1749 74.1031 49.536C76.1015 42.2468 78.0644 33.763 79.2622 28.1735L75.3509 27.3354ZM21.2368 28.1735C22.4346 33.763 24.3974 42.2468 26.3958 49.536C27.3935 53.1749 28.4108 56.5564 29.3559 59.1421C29.8266 60.4298 30.2974 61.5705 30.7584 62.4635C30.9885 62.9091 31.2376 63.3352 31.5076 63.7016C31.755 64.0375 32.1289 64.4756 32.6514 64.7739L34.6346 61.3002C34.8278 61.4105 34.8506 61.4955 34.728 61.329C34.6278 61.1931 34.4878 60.9676 34.3126 60.6283C33.9632 59.9516 33.5589 58.9895 33.1128 57.7689C32.2242 55.3378 31.241 52.0803 30.2535 48.4784C28.2816 41.2857 26.3362 32.8802 25.148 27.3354L21.2368 28.1735ZM66.0754 61.1956L50.0416 67.9919L51.6026 71.6747L67.6365 64.8785L66.0754 61.1956ZM51.5526 67.9715L34.2303 61.1752L32.7694 64.8989L50.0916 71.6951L51.5526 67.9715Z" fill="url(#paint0_linear_139_169)"/>
<path d="M36 29.5L50.5 15.5" stroke="url(#paint1_linear_139_169)" stroke-width="2"/>
<defs>
<linearGradient id="paint0_linear_139_169" x1="50.5" y1="12.9995" x2="50.5" y2="85.9995" gradientUnits="userSpaceOnUse">
<stop stop-color="#FFD952"/>
<stop offset="1" stop-color="#886D0E"/>
</linearGradient>
<linearGradient id="paint1_linear_139_169" x1="43.25" y1="15.5" x2="43.25" y2="29.5" gradientUnits="userSpaceOnUse">
<stop stop-color="#FCD650"/>
<stop offset="1" stop-color="#E2BF41"/>
</linearGradient>
</defs>
</svg>
