<svg width="100" height="100" viewBox="0 0 100 100" fill="none" xmlns="http://www.w3.org/2000/svg">
<rect y="-0.000488281" width="100" height="100" rx="15" fill="white"/>
<path d="M48.0782 85.9995C36.2199 85.1106 12.2025 75.9328 11 46.3328L17.3467 37.9995L24.0275 46.3328M48.0782 85.9995H53.5899L58.2664 78.8328L53.5899 72.6661H48.0782C46.0183 74.6106 43.0677 78.5661 43.0677 78.8328L48.0782 85.9995ZM52.9218 85.9995C64.7801 85.1106 88.7975 75.9328 90 46.3328L83.6533 37.9995L76.9725 46.3328L75.9704 47.4995M30.7082 64.3328C27.6351 62.5995 21.2995 36.4995 18.5159 23.6662L34.5497 28.1662L50.0825 12.9995L65.6152 28.1662L81.649 23.6662C78.8654 36.4995 72.5298 62.5995 69.4567 64.3328L50.7505 72.1661L30.5412 64.3328M33.643 63.0366C31.0089 61.5327 25.5784 38.8882 23.1924 27.754L36.9357 31.6582L50.2495 18.4995L63.5633 31.6582L77.3065 27.754C74.9206 38.8882 69.4901 61.5327 66.8559 63.0366L50.8221 69.8328L33.4999 63.0366M34.2504 39.3605L50.7505 31.8605L66.3657 39.3605L63.2505 56.8605L50.7505 61.8605L37.2505 56.8605L34.2504 39.3605Z" stroke="url(#paint0_linear_125_220)" stroke-width="4"/>
<path d="M36 29.4995L50.5 15.4995" stroke="url(#paint1_linear_125_220)" stroke-width="2"/>
<defs>
<linearGradient id="paint0_linear_125_220" x1="50.5" y1="12.999" x2="50.5" y2="85.999" gradientUnits="userSpaceOnUse">
<stop stop-color="#FFD952"/>
<stop offset="1" stop-color="#886D0E"/>
</linearGradient>
<linearGradient id="paint1_linear_125_220" x1="43.25" y1="15.4995" x2="43.25" y2="29.4995" gradientUnits="userSpaceOnUse">
<stop stop-color="#FCD650"/>
<stop offset="1" stop-color="#E2BF41"/>
</linearGradient>
</defs>
</svg>
