<svg width="100" height="100" viewBox="0 0 100 100" fill="none" xmlns="http://www.w3.org/2000/svg">
<rect width="100" height="100" rx="15" fill="white"/>
<path d="M49.5 28.6467L52.9187 39.3747L53.0297 39.7229H53.3951H64.4851L55.5048 46.3753L55.2175 46.5882L55.326 46.9289L58.7511 57.6766L49.7976 51.0441L49.5 50.8236L49.2024 51.0441L40.2489 57.6766L43.674 46.9289L43.7825 46.5882L43.4952 46.3753L34.5149 39.7229H45.6049H45.9703L46.0813 39.3747L49.5 28.6467ZM49.9764 31.5653L49.5 30.0704L49.0236 31.5653L46.2781 40.1806H37.4H35.8851L37.1024 41.0823L44.2932 46.4092L41.5454 55.032L41.0753 56.5072L42.3194 55.5855L49.5 50.2663L56.6806 55.5855L57.9247 56.5072L57.4546 55.032L54.7068 46.4092L61.8976 41.0823L63.1149 40.1806H61.6H52.7219L49.9764 31.5653ZM51.88 40.8324L51.991 41.1806H52.3564H60.0851L53.8242 45.8185L53.5368 46.0314L53.6454 46.3721L56.0317 53.8604L49.7976 49.2423L49.5 49.0218L49.2024 49.2423L42.9683 53.8604L45.3546 46.3721L45.4632 46.0314L45.1758 45.8185L38.9149 41.1806H46.6436H47.009L47.12 40.8324L49.5 33.3639L51.88 40.8324Z" stroke="url(#paint0_linear_125_220)"/>
<path d="M48.0782 86C36.2199 85.1111 12.2025 75.9333 11 46.3333L17.3467 38L24.0275 46.3333M48.0782 86H53.5899L58.2664 78.8333L53.5899 72.6667H48.0782C46.0183 74.6111 43.0677 78.5667 43.0677 78.8333L48.0782 86ZM52.9218 86C64.7801 85.1111 88.7975 75.9333 90 46.3333L83.6533 38L76.9725 46.3333L75.9704 47.5M30.7082 64.3333C27.6351 62.6 21.2995 36.5 18.5159 23.6667L34.5497 28.1667L50.0825 13L65.6152 28.1667L81.649 23.6667C78.8654 36.5 72.5298 62.6 69.4567 64.3333L50.7505 72.1667L30.5412 64.3333M33.643 63.0371C31.0089 61.5332 25.5784 38.8887 23.1924 27.7545L36.9357 31.6587L50.2495 18.5L63.5633 31.6587L77.3066 27.7545C74.9206 38.8887 69.4901 61.5332 66.8559 63.0371L50.8221 69.8333L33.4999 63.0371M27.8689 36.8333L49.9154 26.8333L72.797 36.8333L66.6173 58.3333L49.9154 63.8333L33.3805 58.3333L27.8689 36.8333ZM30.2072 38.1757L50.0409 29.1667L70.6258 38.1757L65.0664 57.545L50.0409 62.5L35.1656 57.545L30.2072 38.1757Z" stroke="url(#paint1_linear_125_220)" stroke-width="4"/>
<path d="M36 29.5L50.5 15.5" stroke="url(#paint2_linear_125_220)" stroke-width="2"/>
<defs>
<linearGradient id="paint0_linear_125_220" x1="49.5" y1="27" x2="49.5" y2="59" gradientUnits="userSpaceOnUse">
<stop stop-color="#FFD952"/>
<stop offset="1" stop-color="#886D0E"/>
</linearGradient>
<linearGradient id="paint1_linear_125_220" x1="50.5" y1="13" x2="50.5" y2="86" gradientUnits="userSpaceOnUse">
<stop stop-color="#FFD952"/>
<stop offset="1" stop-color="#886D0E"/>
</linearGradient>
<linearGradient id="paint2_linear_125_220" x1="43.25" y1="15.5" x2="43.25" y2="29.5" gradientUnits="userSpaceOnUse">
<stop stop-color="#FCD650"/>
<stop offset="1" stop-color="#E2BF41"/>
</linearGradient>
</defs>
</svg>
