<svg width="100" height="100" viewBox="0 0 100 100" fill="none" xmlns="http://www.w3.org/2000/svg">
<rect width="100" height="100" fill="white"/>
<path fill-rule="evenodd" clip-rule="evenodd" d="M100 0H0V100H100V0ZM51.4797 11.569L50.0825 10.2047L48.6852 11.569L33.9785 25.9291L19.0563 21.7411L15.8569 20.8431L16.5613 24.0906C17.37 27.819 18.4647 32.669 19.6875 37.7224L18.9072 36.749L17.3063 34.7521L15.7556 36.7882L9.40891 45.1216L8.9724 45.6947L9.00165 46.4145C9.62749 61.8195 16.2256 72.0447 24.2943 78.4954C32.2926 84.8899 41.6622 87.5246 47.9287 87.9944L48.0034 87.9999H48.0782H53.5899H54.6729L54.7907 87.8195C60.9726 87.033 69.4096 84.3285 76.7057 78.4954C84.7744 72.0447 91.3725 61.8195 91.9984 46.4145L92.0298 45.6403L91.5314 45.047L84.5314 36.7136L82.8822 34.7503L81.3795 36.8279L80.2939 38.3287C81.5968 33.0596 82.7621 27.9701 83.6036 24.0906L84.308 20.8431L81.1086 21.7411L66.1864 25.9291L51.4797 11.569ZM17.3871 41.2479L22.0541 47.0692C22.1992 47.6137 22.3447 48.1538 22.4903 48.6883C23.6324 52.8794 24.7957 56.7682 25.8782 59.7376C26.4176 61.2172 26.9552 62.5197 27.4802 63.534C27.7423 64.0403 28.0228 64.5173 28.3238 64.9232C28.6028 65.2994 29.007 65.7641 29.5587 66.0753L29.6841 66.1461L29.8184 66.1981L45.6162 72.3215C44.781 73.2249 43.9301 74.2506 43.2284 75.1427C42.7148 75.7958 42.2594 76.405 41.9254 76.8795C41.7607 77.1134 41.6112 77.335 41.4957 77.5224C41.4402 77.6125 41.3733 77.7257 41.3135 77.8449C41.2844 77.9028 41.2402 77.9953 41.1989 78.1078L41.1973 78.1121C41.172 78.1808 41.0677 78.464 41.0677 78.8333V79.4631L41.4285 79.9793L43.7853 83.3501C38.6293 82.2505 32.3354 79.8029 26.7921 75.3712C19.7084 69.708 13.7781 60.7553 13.0321 46.966L17.3871 41.2479ZM46.3725 77.6155C47.1642 76.6089 48.0895 75.51 48.9022 74.6666H52.5965L55.8219 78.9197L52.5068 83.9999H49.1203L45.478 78.7904C45.7277 78.4496 46.0325 78.0478 46.3725 77.6155ZM59.9413 79.9263L57.7902 83.2229C62.8343 82.0671 68.8692 79.6394 74.2079 75.3712C81.2823 69.7154 87.2063 60.7787 87.9649 47.0201L83.1178 41.2497L78.593 47.5055L78.5307 47.5917L78.4595 47.6708L77.6119 48.6131L77.5886 48.6973C76.4254 52.8889 75.241 56.7775 74.1425 59.7465C73.5951 61.226 73.0508 62.5277 72.5212 63.541C72.2569 64.0469 71.9746 64.5228 71.6727 64.9276C71.393 65.3026 70.9888 65.7653 70.4392 66.0753L70.3372 66.1329L70.2292 66.1781L55.7708 72.2326L59.86 77.6248L60.7109 78.7469L59.9413 79.9263ZM30.1843 48.4873C28.5967 42.59 27.0268 35.8771 25.8572 30.5906L36.3891 33.5826L37.5116 33.9014L38.3416 33.0812L50.2495 21.312L62.1574 33.0812L62.9873 33.9014L64.1098 33.5826L74.6383 30.5916C73.46 35.8734 71.8616 42.5833 70.2455 48.4784C69.258 52.0803 68.2747 55.3378 67.3861 57.7689C66.94 58.9895 66.5358 59.9516 66.1863 60.6283C66.0139 60.9624 65.8754 61.1862 65.7756 61.3227L50.7929 67.6734L34.5723 61.3094C34.4749 61.1726 34.3425 60.9547 34.1792 60.6354C33.8337 59.9596 33.4348 58.9983 32.9953 57.7778C32.1198 55.347 31.1542 52.0898 30.1843 48.4873ZM65.6961 61.4216C65.6955 61.4222 65.6952 61.4225 65.6952 61.4226C65.6952 61.4226 65.6969 61.421 65.7002 61.4174C65.6982 61.4193 65.6969 61.4207 65.6961 61.4216ZM34.6629 61.4246C34.6633 61.425 34.6636 61.4252 34.6636 61.4252C34.6637 61.4252 34.662 61.4233 34.6583 61.4198C34.6605 61.4222 34.6621 61.4238 34.6629 61.4246Z" fill="url(#paint0_radial_160_104)"/>
<defs>
<radialGradient id="paint0_radial_160_104" cx="0" cy="0" r="1" gradientUnits="userSpaceOnUse" gradientTransform="translate(50 50) rotate(90) scale(50)">
<stop stop-color="#FFD952"/>
<stop offset="1" stop-color="#C5AC54"/>
</radialGradient>
</defs>
</svg>
